<svg viewBox="0 0 31 30"><g fill="#149063" clip-path="url(#about us__a)"><path d="M26.655 16.015h-2.32c.236.647.365 1.346.365 2.074v8.769c0 .303-.052.595-.149.866h3.836a2.601 2.601 0 0 0 2.598-2.599v-4.78a4.336 4.336 0 0 0-4.33-4.33ZM7.27 18.09c0-.729.13-1.427.366-2.075h-2.32a4.336 4.336 0 0 0-4.33 4.33v4.781a2.601 2.601 0 0 0 2.598 2.598h3.835a2.587 2.587 0 0 1-.149-.866V18.09Zm11.367-4.331h-5.304a4.336 4.336 0 0 0-4.33 4.33v8.769c0 .478.387.866.866.866h12.233a.866.866 0 0 0 .866-.866V18.09a4.336 4.336 0 0 0-4.33-4.331ZM15.985 2.276a5.214 5.214 0 0 0-5.208 5.208 5.212 5.212 0 0 0 5.208 5.208 5.211 5.211 0 0 0 5.208-5.208 5.214 5.214 0 0 0-5.208-5.208ZM6.84 7.13a3.9 3.9 0 0 0-3.895 3.895A3.9 3.9 0 0 0 6.84 14.92c.545 0 1.063-.112 1.535-.315a3.92 3.92 0 0 0 1.902-1.75 3.87 3.87 0 0 0 .458-1.83A3.9 3.9 0 0 0 6.84 7.13Zm18.29 0a3.9 3.9 0 0 0-3.894 3.895c0 .662.166 1.284.458 1.83a3.919 3.919 0 0 0 1.902 1.75 3.9 3.9 0 0 0 5.43-3.58A3.9 3.9 0 0 0 25.13 7.13Z"/></g><defs><clipPath id="about us__a"><path fill="#fff" d="M0 0h30v30H0z" transform="translate(.985)"/></clipPath></defs></svg>