<svg viewBox="0 0 26 30"><path fill="#149063" d="M20.61 9.904H5.39a.613.613 0 0 0-.612.613V23.28c0 .339.274.613.613.613h2.713v4.301a1.807 1.807 0 1 0 3.614 0v-4.3h2.527v4.3a1.807 1.807 0 1 0 3.614 0v-4.3h2.75a.613.613 0 0 0 .613-.614V10.517a.613.613 0 0 0-.613-.613ZM2.201 9.901c-.998 0-1.807.81-1.807 1.807v7.34a1.807 1.807 0 1 0 3.614 0v-7.34c0-.998-.809-1.807-1.807-1.807Zm21.598 0c-.998 0-1.807.81-1.807 1.807v7.34a1.807 1.807 0 0 0 3.614 0v-7.34c0-.998-.81-1.807-1.807-1.807ZM5.514 9.01H20.45c.39 0 .68-.36.6-.741a8.256 8.256 0 0 0-4.027-5.486L18.3.48a.323.323 0 0 0-.565-.313l-1.287 2.32a8.213 8.213 0 0 0-3.466-.761 8.213 8.213 0 0 0-3.466.762L8.229.166a.323.323 0 0 0-.565.313l1.277 2.304A8.256 8.256 0 0 0 4.914 8.27c-.08.381.21.74.6.74Zm11.925-3.434a.695.695 0 1 1-1.39 0 .695.695 0 0 1 1.39 0Zm-8.22-.695a.695.695 0 1 1 0 1.39.695.695 0 0 1 0-1.39Z"/></svg>