<svg viewBox="0 0 31 30"><g clip-path="url(#bankdetails__a)"><path d="M27.47 24.13H3.34a2.938 2.938 0 0 0-2.934 2.935v1.957c0 .54.438.978.978.978h28.043c.54 0 .979-.438.979-.978v-1.957a2.938 2.938 0 0 0-2.935-2.935Zm2.335-18.184L15.783.076a.977.977 0 0 0-.755 0L1.006 5.946a.979.979 0 0 0-.6.902v3.913c0 .54.438.978.978.978h28.043c.54 0 .979-.438.979-.978V6.848a.979.979 0 0 0-.6-.902ZM15.405 7.5a.978.978 0 1 1 0-1.957.978.978 0 0 1 0 1.957Zm12.718 6.196h-5.87v8.478h5.87v-8.478Zm-9.783 0h-5.87v8.478h5.87v-8.478Zm-9.782 0h-5.87v8.478h5.87v-8.478Z"/></g><defs><clipPath id="bankdetails__a"><path fill="#fff" d="M0 0h30v30H0z" transform="translate(.406)"/></clipPath></defs></svg>