<svg viewBox="0 0 31 30"><g clip-path="url(#blog__a)"><path d="M6.993 22.969h6.445c.046-.128.08-.259.147-.381l2.099-3.497L26.597 8.178c.219-.219.468-.392.728-.544V.88a.878.878 0 0 0-.879-.88H22.93a.878.878 0 0 0-.878.879.88.88 0 0 1-1.758 0 .878.878 0 0 0-.88-.879H15.9a.878.878 0 0 0-.879.879.88.88 0 0 1-1.758 0 .878.878 0 0 0-.88-.879H8.752a.878.878 0 0 0-.88.879.88.88 0 0 1-1.757 0A.878.878 0 0 0 5.235 0H1.72a.878.878 0 0 0-.878.879V29.12c0 .486.393.879.878.879h24.727a.878.878 0 0 0 .879-.879V17.394l-6.67 6.67-3.427 2.059c-1.425.776-2.906.218-3.595-.937-.087-.147-.142-.303-.199-.46H6.993a.878.878 0 1 1 0-1.757Zm0-15.82h14.18a.878.878 0 1 1 0 1.757H6.993a.878.878 0 1 1 0-1.758Zm0 5.273h12.422a.878.878 0 1 1 0 1.758H6.993a.878.878 0 1 1 0-1.758Zm0 5.273h7.148a.878.878 0 1 1 0 1.758H6.993a.878.878 0 1 1 0-1.758Z"/><path d="M30.326 9.42a1.76 1.76 0 0 0-2.486 0l-1.363 1.364 2.486 2.486 1.363-1.363a1.76 1.76 0 0 0 0-2.487Zm-5.09 2.607-6.442 6.442 2.488 2.487 6.441-6.442-2.487-2.487ZM17.55 19.71l-.47.47-1.95 3.244c-.416.77.424 1.608 1.192 1.192l3.244-1.949.47-.47-2.486-2.487Z"/></g><defs><clipPath id="blog__a"><path fill="#fff" d="M0 0h30v30H0z" transform="translate(.84)"/></clipPath></defs></svg>