<svg viewBox="0 0 30 30"><path d="M25.042 10.219a11.034 11.034 0 0 1 1.046 3.9H30a14.92 14.92 0 0 0-1.562-5.86l-3.396 1.96ZM5.853 8.68a11.214 11.214 0 0 1 2.843-2.84l-1.96-3.395a15.17 15.17 0 0 0-4.137 4.062L5.853 8.68Zm2.843 15.478a11.215 11.215 0 0 1-2.855-2.854l-3.395 1.96a15.166 15.166 0 0 0 4.29 4.29l1.96-3.396Zm15.462-2.854a11.214 11.214 0 0 1-2.854 2.854l1.96 3.396a15.172 15.172 0 0 0 4.29-4.29l-3.396-1.96Zm-19.2-1.524a11.036 11.036 0 0 1-1.046-3.9H0a14.915 14.915 0 0 0 1.563 5.861l3.395-1.96Zm14.822 5.261a11.036 11.036 0 0 1-3.9 1.047V30a14.92 14.92 0 0 0 5.861-1.563l-1.96-3.396Zm6.308-9.161a11.037 11.037 0 0 1-1.046 3.9l3.396 1.961A14.92 14.92 0 0 0 30 15.881h-3.912ZM14.12 26.088a11.038 11.038 0 0 1-3.901-1.047l-1.96 3.396A14.92 14.92 0 0 0 14.118 30v-3.912Zm1.76-22.176c1.387.11 2.703.474 3.901 1.046l1.96-3.396A14.921 14.921 0 0 0 15.882 0v3.912Zm5.424 1.929a11.214 11.214 0 0 1 2.854 2.855l3.396-1.96a15.168 15.168 0 0 0-4.29-4.29l-1.96 3.395Zm-11.085-.883a11.039 11.039 0 0 1 3.9-1.046V0a14.92 14.92 0 0 0-5.86 1.563l1.96 3.395ZM3.912 14.12c.11-1.393.477-2.714 1.053-3.916L1.688 8.017A14.912 14.912 0 0 0 0 14.12h3.912ZM15 5.638c-5.162 0-9.362 4.2-9.362 9.362s4.2 9.362 9.362 9.362 9.362-4.2 9.362-9.362-4.2-9.362-9.362-9.362ZM18.5 15c0 .634-.169 1.241-.482 1.773l2.041 2.042a.88.88 0 1 1-1.245 1.245l-2.041-2.042a3.477 3.477 0 0 1-1.773.481 3.477 3.477 0 0 1-1.773-.481l-2.042 2.042a.878.878 0 0 1-1.245 0 .88.88 0 0 1 0-1.245l2.042-2.042A3.477 3.477 0 0 1 11.501 15c0-.633.168-1.241.481-1.773L9.94 11.186a.88.88 0 0 1 1.245-1.246l2.042 2.042A3.477 3.477 0 0 1 15 11.501c.633 0 1.241.168 1.773.481l2.041-2.042a.88.88 0 0 1 1.246 1.246l-2.042 2.041c.313.532.481 1.14.481 1.773Z"/><path d="M15 13.262A1.733 1.733 0 0 0 13.26 15a1.74 1.74 0 0 0 3.477 0A1.733 1.733 0 0 0 15 13.262Z"/></svg>