<svg viewBox="0 0 28 23"><path d="M16.15 1.503C14.459.533 12.454 0 10.38 0 4.74 0 0 3.904 0 8.902c0 1.752.586 3.432 1.7 4.883L.143 18.32c-.164.48.222.967.761.967a.845.845 0 0 0 .362-.08l4.729-2.234c.191.076.385.148.581.214-1.095-1.588-1.68-3.41-1.68-5.318 0-5.682 5.147-10.05 11.254-10.366Z"/><path d="M25.616 16.72c1.117-1.45 1.705-3.13 1.705-4.883 0-5-4.759-8.902-10.415-8.902-5.66 0-10.416 3.904-10.416 8.902 0 5 4.759 8.902 10.416 8.902 1.517 0 3.03-.287 4.399-.831l4.745 2.234a.853.853 0 0 0 .881-.096.708.708 0 0 0 .245-.79l-1.56-4.536Zm-11.968-4.141c-.443 0-.802-.333-.802-.742 0-.41.36-.742.802-.742.442 0 .8.332.8.742s-.358.742-.8.742Zm3.204 0c-.442 0-.801-.333-.801-.742 0-.41.359-.742.801-.742.443 0 .801.332.801.742s-.358.742-.8.742Zm3.205 0c-.443 0-.801-.333-.801-.742 0-.41.358-.742.8-.742.443 0 .802.332.802.742s-.359.742-.801.742Z"/></svg>