<svg viewBox="0 0 18 18"><path fill="#0F6B49" fill-rule="evenodd" d="M5.759 0h6.482c.805 0 1.47 0 2.01.044.563.046 1.08.145 1.565.392a4 4 0 0 1 1.748 1.748c.247.485.346 1.002.392 1.564C18 4.29 18 4.954 18 5.758v6.483c0 .805 0 1.47-.044 2.01-.046.563-.145 1.08-.392 1.565a4 4 0 0 1-1.748 1.748c-.485.247-1.002.346-1.564.392-.541.044-1.206.044-2.01.044H5.758c-.805 0-1.47 0-2.01-.044-.563-.046-1.08-.145-1.565-.392a4 4 0 0 1-1.748-1.748c-.247-.485-.346-1.002-.392-1.564C0 13.71 0 13.046 0 12.242V5.758c0-.805 0-1.47.044-2.01.046-.563.145-1.08.392-1.565A4 4 0 0 1 2.184.436C2.669.189 3.186.09 3.748.044 4.29 0 4.954 0 5.758 0ZM3.91 2.038c-.438.035-.663.1-.819.18a2 2 0 0 0-.874.874c-.08.156-.145.38-.18.819C2 4.361 2 4.943 2 5.8v6.4c0 .857 0 1.439.038 1.889.035.438.1.663.18.819a2 2 0 0 0 .874.874c.156.08.38.145.819.18C4.361 16 4.943 16 5.8 16h6.4c.857 0 1.439 0 1.889-.038.438-.035.663-.1.819-.18a2 2 0 0 0 .874-.874c.08-.156.145-.38.18-.819.037-.45.038-1.032.038-1.889V5.8c0-.857 0-1.439-.038-1.889-.035-.438-.1-.663-.18-.819a2 2 0 0 0-.874-.874c-.156-.08-.38-.145-.819-.18C13.639 2 13.057 2 12.2 2H5.8c-.857 0-1.439 0-1.889.038Z" clip-rule="evenodd"/></svg>