<svg viewBox="0 0 31 30"><path fill="#149063" fill-rule="evenodd" d="M.714 1.667C.714.747 1.461 0 2.381 0h26.667a1.667 1.667 0 0 1 0 3.333H2.38c-.92 0-1.667-.746-1.667-1.666Zm7.29 18.956c.65-.651.65-1.706 0-2.357L4.738 15l3.266-3.266a1.667 1.667 0 1 0-2.357-2.357l-4.444 4.445a1.665 1.665 0 0 0 0 2.356l4.444 4.445c.65.65 1.706.65 2.357 0Zm5.488-11.734a1.667 1.667 0 0 0 0 3.333h15.556a1.667 1.667 0 0 0 0-3.333H13.492Zm0 8.889h15.556a1.667 1.667 0 0 1 0 3.333H13.492a1.667 1.667 0 0 1 0-3.333Zm15.556 8.889H2.38a1.667 1.667 0 0 0 0 3.333h26.667a1.667 1.667 0 0 0 0-3.333Z" clip-rule="evenodd"/></svg>