<svg viewBox="0 0 29 22"><path d="M24.81 0H4.19C1.565 0 0 1.396 0 3.734v4.592c0 2.338 1.566 3.734 4.19 3.734h.36V4.813c0-.418.38-.757.85-.757h18.2c.47 0 .85.34.85.757v7.247h.36c2.624 0 4.19-1.396 4.19-3.734V3.734C29 1.396 27.434 0 24.81 0Z"/><path d="M14.5 8.923c2.252 0 4.132-1.447 4.532-3.353H9.968c.4 1.906 2.28 3.353 4.532 3.353Zm-8.251 8.062v3.349c0 .418.38.757.85.757h3.756c-.367-2.108-2.24-3.779-4.606-4.106Zm11.896 4.105h3.757c.469 0 .85-.338.85-.756v-3.349c-2.366.327-4.24 1.998-4.607 4.106Z"/><path d="M14.5 10.437c-3.191 0-5.836-2.122-6.253-4.867H6.25v9.887c3.303.347 5.93 2.689 6.32 5.634h3.861c.39-2.945 3.017-5.287 6.32-5.634V5.57h-1.998c-.416 2.745-3.061 4.867-6.252 4.867Z"/></svg>