<svg viewBox="0 0 40 35"><g filter="url(#eyesclose__a)"><path stroke="#149063" stroke-linecap="round" stroke-linejoin="round" stroke-width="1.667" d="M9.564 13.421a5.749 5.749 0 0 1-1.23-2.518c0-1.32 5.277-7.917 11.874-7.917M30.236 8a6.688 6.688 0 0 1 1.847 2.903c0 1.32-3.958 7.916-11.875 7.916-.414 0-.818-.018-1.211-.052m-8.025 1.372L29.444 1.666m-5.277 9.237a3.959 3.959 0 1 1-7.918 0 3.959 3.959 0 0 1 7.918 0Z" shape-rendering="crispEdges"/></g><defs><filter id="eyesclose__a" width="38.75" height="33.472" x=".833" y=".833" color-interpolation-filters="sRGB" filterUnits="userSpaceOnUse"><feFlood flood-opacity="0" result="BackgroundImageFix"/><feColorMatrix in="SourceAlpha" result="hardAlpha" values="0 0 0 0 0 0 0 0 0 0 0 0 0 0 0 0 0 0 127 0"/><feOffset dy="6.667"/><feGaussianBlur stdDeviation="3.333"/><feComposite in2="hardAlpha" operator="out"/><feColorMatrix values="0 0 0 0 0 0 0 0 0 0 0 0 0 0 0 0 0 0 0.25 0"/><feBlend in2="BackgroundImageFix" result="effect1_dropShadow_223_52945"/><feBlend in="SourceGraphic" in2="effect1_dropShadow_223_52945" result="shape"/></filter></defs></svg>