<svg viewBox="0 0 31 30" fill="none" xmlns="http://www.w3.org/2000/svg">
<path d="M27.5367 10.8096C25.5417 10.2845 23.711 9.23216 22.2434 7.76656C20.7721 6.29726 19.7169 4.46379 19.1919 2.46434C19.1866 2.44383 19.1866 2.44383 19.031 1.72975C19.026 1.70678 19.021 1.68398 19.016 1.66113C16.5756 2.58299 14.5285 3.86139 12.9067 5.48093C11.0925 7.29265 9.69522 9.65902 8.75345 12.5144C8.05459 14.6333 7.72279 16.6911 7.56589 18.2311L0.839307 18.6916C0.836021 18.6919 0.832853 18.6925 0.829567 18.6928C0.811613 18.6943 0.793835 18.6967 0.776115 18.6992C0.764263 18.7008 0.752352 18.7022 0.740735 18.7044C0.726301 18.707 0.712044 18.7106 0.697786 18.714C0.683235 18.7174 0.668684 18.7206 0.654426 18.7247C0.643865 18.7277 0.633656 18.7316 0.623212 18.735C0.606138 18.7406 0.589005 18.7461 0.572518 18.7527C0.564479 18.756 0.556676 18.7599 0.548755 18.7633C0.530742 18.7712 0.512729 18.779 0.49542 18.7879C0.486971 18.7923 0.478933 18.7974 0.470601 18.8021C0.454583 18.811 0.438507 18.8198 0.423193 18.8297C0.411576 18.8372 0.400604 18.8455 0.389397 18.8536C0.378073 18.8617 0.366514 18.8693 0.355601 18.8779C0.341343 18.8891 0.327848 18.9013 0.314236 18.9135C0.307019 18.9199 0.299509 18.9259 0.292527 18.9326C0.278504 18.9459 0.265419 18.9602 0.252218 18.9745C0.246174 18.9811 0.239838 18.9873 0.234029 18.994C0.222529 19.0073 0.211909 19.0214 0.201172 19.0354C0.194307 19.0444 0.187207 19.053 0.180695 19.0622C0.172363 19.0741 0.164794 19.0865 0.157049 19.0988C0.149011 19.1115 0.140797 19.124 0.133404 19.1372C0.127771 19.1471 0.122784 19.1576 0.117503 19.1678C0.109113 19.1842 0.10084 19.2006 0.0934469 19.2174C0.0922147 19.2203 0.0905718 19.2229 0.0893397 19.2259C0.0865234 19.2326 0.0845871 19.2394 0.0819468 19.2461C0.0749646 19.2637 0.0682758 19.2814 0.0624671 19.2994C0.0588294 19.3106 0.055837 19.3218 0.0526686 19.333C0.0482094 19.3492 0.0438676 19.3653 0.0402885 19.3816C0.0372375 19.3955 0.0348905 19.4094 0.0325436 19.4233C0.0302553 19.4372 0.027967 19.4509 0.0263241 19.4649C0.0243292 19.4818 0.0231558 19.4985 0.0220996 19.5153C0.0213956 19.5268 0.0206328 19.5383 0.0203981 19.5499C0.0199874 19.5689 0.0205741 19.5879 0.0213956 19.6067C0.0216889 19.6139 0.0212782 19.621 0.0218063 19.6283C0.022041 19.6315 0.0226864 19.6346 0.0229211 19.6379C0.0242706 19.6546 0.0265002 19.6712 0.0287884 19.6877C0.03049 19.7001 0.0320155 19.7126 0.0342451 19.7247C0.0367094 19.7382 0.0398191 19.7513 0.0428701 19.7646C0.0463319 19.7796 0.049735 19.7947 0.0539595 19.8094C0.0569518 19.8198 0.0604722 19.83 0.0638166 19.8402C0.069332 19.857 0.074906 19.8738 0.0813601 19.8901C0.0848805 19.8991 0.088929 19.9078 0.0927428 19.9166C0.0999596 19.9333 0.107353 19.9499 0.115567 19.9659C0.120261 19.9751 0.125424 19.9841 0.13047 19.9932C0.138684 20.0079 0.146957 20.0226 0.155993 20.0368C0.162506 20.0472 0.169547 20.0572 0.176529 20.0673C0.184919 20.0794 0.193368 20.0914 0.202287 20.103C0.21097 20.1143 0.220065 20.1252 0.229335 20.1361C0.237608 20.1459 0.24594 20.1555 0.254624 20.1648C0.265126 20.1762 0.275981 20.1871 0.287129 20.1979C0.295812 20.2063 0.304555 20.2146 0.313591 20.2226C0.325149 20.2329 0.336943 20.2429 0.349088 20.2527C0.359239 20.2608 0.369565 20.2686 0.380068 20.2763C0.391509 20.2847 0.403068 20.2929 0.415037 20.3008C0.42818 20.3095 0.441675 20.3175 0.455288 20.3256C0.465321 20.3314 0.475295 20.3374 0.485622 20.3429C0.503459 20.3525 0.521765 20.361 0.540247 20.3693C0.54588 20.3719 0.551102 20.375 0.556793 20.3774L0.571051 20.3834C0.571931 20.3837 0.572811 20.3842 0.573691 20.3845L6.92353 23.0683L9.65749 29.467C9.65884 29.4702 9.66054 29.4732 9.66189 29.4763C9.66612 29.4858 9.6707 29.4952 9.67521 29.5045C9.68255 29.5196 9.69018 29.5345 9.69827 29.5489C9.70244 29.5564 9.7066 29.5639 9.711 29.5713C9.72274 29.591 9.73512 29.6102 9.74814 29.6286C9.74949 29.6305 9.75067 29.6325 9.75202 29.6344C9.76798 29.6566 9.78499 29.678 9.80271 29.6984C9.80389 29.6997 9.80512 29.7009 9.80635 29.7023C9.82248 29.7206 9.83932 29.738 9.85669 29.7547C9.86051 29.7584 9.86438 29.762 9.86825 29.7656C9.8845 29.7806 9.90122 29.795 9.91836 29.8086C9.92205 29.8116 9.92557 29.8147 9.92927 29.8175C9.9494 29.833 9.97005 29.8477 9.99135 29.8613C9.99739 29.8652 10.0037 29.8686 10.0099 29.8724C10.0251 29.8816 10.0405 29.8904 10.0561 29.8987C10.0653 29.9036 10.0745 29.9082 10.0839 29.9127C10.0986 29.9198 10.1135 29.9263 10.1285 29.9326C10.1371 29.9361 10.1455 29.94 10.1543 29.9433C10.1768 29.9519 10.1997 29.9594 10.2229 29.9661C10.2307 29.9683 10.2387 29.9702 10.2466 29.9722C10.2658 29.9771 10.2851 29.9815 10.3044 29.9851C10.3112 29.9863 10.3178 29.9877 10.3246 29.9888C10.3714 29.9965 10.4189 30.0008 10.4668 30.0008C10.5036 30.0008 10.5405 29.9976 10.5774 29.9929C10.5979 29.9903 10.6185 29.9877 10.6385 29.9837C10.6437 29.9827 10.6488 29.9811 10.654 29.9799C10.6774 29.9748 10.7006 29.9691 10.7232 29.9622C10.7292 29.9604 10.735 29.958 10.7408 29.9561C10.7626 29.949 10.784 29.9413 10.805 29.9326C10.8071 29.9317 10.8094 29.9311 10.8116 29.9302C10.8179 29.9275 10.8238 29.9241 10.83 29.9212C10.8473 29.9133 10.8645 29.9052 10.8811 29.8962C10.8921 29.8904 10.9026 29.8841 10.9132 29.8779C10.9262 29.8702 10.939 29.8625 10.9515 29.8542C10.9639 29.846 10.9758 29.8375 10.9877 29.8288C10.9977 29.8215 11.0076 29.814 11.0173 29.8061C11.0298 29.7961 11.042 29.7858 11.0539 29.7751C11.0624 29.7674 11.0708 29.7595 11.079 29.7515C11.0905 29.7403 11.1018 29.729 11.1127 29.7173C11.121 29.7083 11.129 29.6989 11.1369 29.6896C11.1465 29.6783 11.1559 29.6671 11.1648 29.6554C11.1736 29.644 11.1817 29.6323 11.1899 29.6204C11.197 29.61 11.2043 29.5997 11.2111 29.589C11.2199 29.575 11.2281 29.5604 11.2362 29.5458C11.2413 29.5365 11.2466 29.5274 11.2513 29.5181C11.2595 29.502 11.2667 29.4854 11.274 29.4688C11.2778 29.4599 11.2818 29.4512 11.2853 29.4422C11.2917 29.4259 11.2972 29.4091 11.3027 29.3924C11.306 29.3821 11.3096 29.372 11.3126 29.3617C11.3167 29.347 11.32 29.3321 11.3234 29.3171C11.3265 29.3038 11.3297 29.2905 11.3321 29.277C11.3342 29.2651 11.3357 29.253 11.3373 29.2409C11.3397 29.224 11.342 29.2072 11.3433 29.1902C11.3435 29.1874 11.3441 29.1847 11.3443 29.1819L11.8086 22.4197C13.3479 22.261 15.4025 21.9275 17.5165 21.2293C20.3637 20.289 22.7242 18.8965 24.5327 17.0905C26.1453 15.48 27.4201 13.4495 28.342 11.0305C27.9246 10.9161 27.5767 10.8206 27.5367 10.8096Z" />
<path d="M30.018 1.25191C30.0075 0.561671 29.4578 0.0127639 28.7665 0.00227557C27.785 -0.0127831 25.1776 0.0279396 22.1557 0.721164C21.6558 0.83589 21.1687 0.962805 20.6941 1.10138C20.7099 1.17345 20.7282 1.25736 20.7497 1.35609C20.8151 1.65667 20.8817 1.96224 20.8977 2.03554C21.3448 3.72679 22.2401 5.27906 23.487 6.52436C24.7354 7.771 26.292 8.66579 27.9885 9.1118C27.9964 9.11391 27.9977 9.11427 28.9027 9.36265C29.0471 8.87315 29.1792 8.37042 29.2981 7.85379C29.9923 4.83603 30.0328 2.23154 30.018 1.25191ZM26.0961 5.17816C26.0755 5.19873 26.0539 5.21801 26.0316 5.23611C26.0093 5.25428 25.9859 5.27127 25.9624 5.28762C25.9383 5.30344 25.9138 5.31809 25.8879 5.33156C25.8627 5.34504 25.837 5.35735 25.8106 5.36848C25.7842 5.37902 25.7566 5.38904 25.7296 5.39719C25.7021 5.40539 25.674 5.41301 25.6457 5.41828C25.6176 5.42414 25.5889 5.42824 25.5601 5.43117C25.532 5.4341 25.5028 5.43586 25.4739 5.43586C25.4451 5.43586 25.4159 5.4341 25.3872 5.43117C25.3591 5.42824 25.3303 5.42414 25.3022 5.41828C25.274 5.41295 25.2459 5.40533 25.2184 5.39719C25.1913 5.38899 25.1638 5.37897 25.1374 5.36848C25.111 5.3574 25.0847 5.3451 25.0594 5.33156C25.0342 5.31809 25.0096 5.30344 24.9855 5.28762C24.9615 5.27121 24.9387 5.25422 24.9164 5.23611C24.8941 5.21789 24.8724 5.19861 24.8519 5.17816C24.6883 5.01481 24.5944 4.78816 24.5944 4.55748C24.5944 4.52877 24.5957 4.49953 24.5986 4.47082C24.6015 4.44211 24.6062 4.41404 24.6115 4.38592C24.6174 4.35785 24.6244 4.32973 24.6326 4.30219C24.6414 4.27465 24.6508 4.24775 24.662 4.22139C24.673 4.19502 24.6854 4.16871 24.6983 4.14351C24.7118 4.11832 24.727 4.09318 24.7429 4.06974C24.7588 4.04572 24.7758 4.02228 24.7939 4.00008C24.8121 3.97781 24.832 3.95672 24.8519 3.93627C24.8725 3.91576 24.8942 3.89642 24.9164 3.87832C24.9387 3.86015 24.9615 3.84316 24.9856 3.82681C25.0097 3.81099 25.0342 3.79635 25.0595 3.78293C25.0848 3.76951 25.1111 3.7572 25.1374 3.7466C25.1639 3.73553 25.1914 3.72556 25.2184 3.7173C25.246 3.7091 25.274 3.70207 25.3023 3.69627C25.3304 3.69035 25.3591 3.68631 25.3873 3.68332C25.4447 3.67746 25.5033 3.67746 25.5602 3.68332C25.5889 3.68631 25.6176 3.69035 25.6458 3.69627C25.674 3.70213 25.7021 3.70916 25.7297 3.7173C25.7567 3.72556 25.7842 3.73553 25.8106 3.7466C25.837 3.7572 25.8628 3.76951 25.888 3.78293C25.9138 3.7964 25.9383 3.81105 25.9625 3.82681C25.9859 3.84322 26.0093 3.86021 26.0316 3.87832C26.054 3.89654 26.0756 3.91588 26.0962 3.93627C26.2598 4.09963 26.3536 4.32627 26.3536 4.55754C26.3535 4.78811 26.2597 5.01475 26.0961 5.17816Z" />
</svg>
