<svg viewBox="0 0 24 30"><path d="M.235 0v25.157H11.04a7.094 7.094 0 0 1-.026-.88 7.206 7.206 0 0 1 2.122-4.905 7.199 7.199 0 0 1 5.132-2.126c.182 0 .363.007.543.02V0H.235Zm13.866 15.357H4.945v-1.761h9.156v1.76Zm0-4.198H4.945V9.4h9.156v1.76Zm0-4.197H4.945v-1.76h9.156v1.76Z"/><path d="M18.268 19.007a4.102 4.102 0 0 0-.26.006l-.041.002-.066.004-.066.005-.107.01-.05.005c-.02.001-.038.004-.056.006l-.106.013-.105.015a3.785 3.785 0 0 0-.081.014l-.059.01a1.581 1.581 0 0 0-.1.02 3.198 3.198 0 0 0-.08.017c-.006 0-.011.002-.017.003l-.016.003-.107.026h-.003a2.492 2.492 0 0 0-.132.035l-.092.026-.107.032h-.002a5.874 5.874 0 0 0-.221.076l-.058.02-.008.004-.014.005-.04.015a4.276 4.276 0 0 0-.16.065l-.088.04-.033.014a11.52 11.52 0 0 0-.128.06l-.078.04-.055.028a4.78 4.78 0 0 0-.241.133l-.047.027-.052.032-.082.051-.007.005a1.52 1.52 0 0 0-.074.049 1.054 1.054 0 0 0-.054.036l-.068.047a4.977 4.977 0 0 0-.271.204 3.725 3.725 0 0 0-.124.102l-.061.052a3.92 3.92 0 0 0-.208.191l-.021.022-.053.051a2.315 2.315 0 0 0-.142.149 1.741 1.741 0 0 0-.095.106l-.05.057a6.082 6.082 0 0 0-.252.32 3.718 3.718 0 0 0-.099.139l-.004.005a3.692 3.692 0 0 0-.115.176l-.042.067-.007.013-.002.003-.061.104a5.035 5.035 0 0 0-.166.31l-.034.072-.007.013-.044.096a3.402 3.402 0 0 0-.096.23 4.693 4.693 0 0 0-.038.097l-.003.009-.018.051a3.266 3.266 0 0 0-.075.223 3.337 3.337 0 0 0-.075.261 5.09 5.09 0 0 0-.082.373l-.01.06-.001.006a6.425 6.425 0 0 0-.032.212l-.002.016a.154.154 0 0 0-.003.018v.005l-.002.014a5.32 5.32 0 0 0-.011.097l-.001.014-.002.018-.001.01a5.984 5.984 0 0 0-.01.107v.014a4.242 4.242 0 0 0-.014.3l-.002.11a5.497 5.497 0 1 0 5.497-5.496Zm1.945 6.902h-2.826V21.8h1.761v2.348h1.065v1.76Z"/></svg>