<svg viewBox="0 0 25 24"><path fill="#149063" d="M21.439 3.515A11.922 11.922 0 0 0 12.954 0a11.922 11.922 0 0 0-8.486 3.515A11.922 11.922 0 0 0 .954 12c0 3.205 1.248 6.219 3.514 8.485A11.922 11.922 0 0 0 12.954 24a11.92 11.92 0 0 0 8.485-3.515A11.921 11.921 0 0 0 24.954 12c0-3.205-1.249-6.219-3.515-8.485Zm1.125 4.032h-4.587c-.241-1.403-.598-2.693-1.06-3.805a9.693 9.693 0 0 0-1.042-1.926 10.643 10.643 0 0 1 6.69 5.73ZM16.938 12a25.88 25.88 0 0 1-.175 3.047H9.145A25.892 25.892 0 0 1 8.969 12c0-1.076.063-2.096.176-3.047h7.618c.113.951.175 1.97.175 3.047ZM12.954 1.406c1.393 0 2.903 2.378 3.597 6.14H9.357c.693-3.762 2.203-6.14 3.597-6.14Zm-2.922.41A9.7 9.7 0 0 0 8.99 3.742c-.461 1.112-.819 2.402-1.06 3.805H3.343a10.644 10.644 0 0 1 6.689-5.73ZM2.36 12c0-1.059.157-2.081.447-3.047h4.924A27.35 27.35 0 0 0 7.563 12c0 1.042.057 2.065.168 3.047H2.807A10.56 10.56 0 0 1 2.36 12Zm.983 4.453H7.93c.241 1.403.599 2.694 1.06 3.805.31.749.66 1.393 1.042 1.926a10.644 10.644 0 0 1-6.69-5.73Zm9.61 6.14c-1.393 0-2.903-2.378-3.596-6.14h7.194c-.693 3.762-2.204 6.14-3.597 6.14Zm2.923-.41a9.698 9.698 0 0 0 1.042-1.925c.46-1.111.818-2.402 1.06-3.805h4.586a10.643 10.643 0 0 1-6.688 5.73Zm2.3-7.136c.111-.982.168-2.005.168-3.047a27.36 27.36 0 0 0-.167-3.047H23.1c.29.966.447 1.988.447 3.047 0 1.059-.157 2.082-.447 3.047h-4.923Z"/></svg>