<svg viewBox="0 0 31 30"><g clip-path="url(#logout__a)"><path d="M15.261 0c-8.271 0-15 6.729-15 15s6.729 15 15 15 15-6.729 15-15-6.729-15-15-15Zm-1.364 6.818a1.364 1.364 0 0 1 2.728 0v5.844a1.364 1.364 0 1 1-2.728 0V6.818Zm1.364 17.727c-4.78 0-8.669-3.888-8.669-8.668 0-2.13.78-4.178 2.196-5.767a1.364 1.364 0 1 1 2.036 1.815 5.932 5.932 0 0 0-1.505 3.952 5.948 5.948 0 0 0 5.942 5.941 5.948 5.948 0 0 0 5.942-5.941c0-1.46-.535-2.864-1.505-3.952a1.364 1.364 0 1 1 2.036-1.815 8.656 8.656 0 0 1 2.196 5.767c0 4.78-3.889 8.668-8.669 8.668Z"/></g><defs><clipPath id="logout__a"><path fill="#fff" d="M0 0h30v30H0z" transform="translate(.261)"/></clipPath></defs></svg>