<svg viewBox="0 0 31 30"><g clip-path="url(#lottery__a)"><path d="M13.689 16.026h-9.95a11.894 11.894 0 0 0 2.914 7.035l7.036-7.035Zm-7.036-8.71A11.894 11.894 0 0 0 3.74 14.35h9.95L6.653 7.316Zm21.028 8.71h-9.95l7.036 7.035a11.894 11.894 0 0 0 2.914-7.035Zm0-1.675a11.894 11.894 0 0 0-2.914-7.035l-7.036 7.035h9.95ZM16.547 27.16a11.893 11.893 0 0 0 7.036-2.915l-7.036-7.035v9.95Zm-1.674 0v-9.95l-7.036 7.035a11.893 11.893 0 0 0 7.036 2.915Zm.049-20.062c.264.74 1.312.74 1.576 0l1.396-3.907a.837.837 0 0 0-.789-1.119h-2.79a.837.837 0 0 0-.789 1.12l1.396 3.906Z"/><path d="M26.873 28.975H24.6l-1.228-2.456c-.465.316-.947.602-1.444.856l.8 1.6H8.693l.8-1.6c-.497-.255-.98-.54-1.444-.856L6.82 28.975H4.547a.837.837 0 1 0 0 1.674h22.326a.837.837 0 1 0 0-1.674ZM16.547 9.188v3.98l7.036-7.036a11.907 11.907 0 0 0-4.123-2.348l-1.384 3.877a2.484 2.484 0 0 1-1.529 1.527Zm-1.674 0a2.484 2.484 0 0 1-1.528-1.527L11.96 3.784a11.908 11.908 0 0 0-4.123 2.348l7.036 7.035V9.188Z"/></g><defs><clipPath id="lottery__a"><path fill="#fff" d="M0 0h30v30H0z" transform="translate(.71)"/></clipPath></defs></svg>