<svg viewBox="0 0 24 24"><g clip-path="url(#menu__a)"><path d="M10.174 0H.783C.353 0 0 .35 0 .783v9.39c0 .433.35.783.783.783h9.39c.433 0 .784-.35.784-.782V.783A.784.784 0 0 0 10.174 0Zm13.043 0h-9.39a.784.784 0 0 0-.784.783v9.39c0 .433.351.783.783.783h9.391c.432 0 .783-.35.783-.782V.783A.784.784 0 0 0 23.217 0ZM10.174 13.043H.783c-.43 0-.783.35-.783.783v9.391c0 .432.35.783.783.783h9.39c.433 0 .784-.35.784-.783v-9.39a.784.784 0 0 0-.783-.784Zm13.043 0h-9.39a.784.784 0 0 0-.784.783v9.391c0 .432.351.783.783.783h9.391c.432 0 .783-.35.783-.783v-9.39a.784.784 0 0 0-.783-.784Z"/></g><defs><clipPath id="menu__a"><path fill="#fff" d="M0 0h24v24H0z"/></clipPath></defs></svg>