<svg viewBox="0 0 30 22"><path d="m19.44 12.245-2.513 2.521c-1.02 1.023-2.812 1.045-3.853 0l-2.512-2.52-9.025 9.053c.336.155.706.248 1.1.248h24.727c.393 0 .764-.093 1.1-.248l-9.025-9.054Z"/><path d="M27.364.453H2.637a2.61 2.61 0 0 0-1.1.248l9.643 9.675.002.002.001.001 3.136 3.146c.333.333 1.03.333 1.363 0l3.135-3.145.001-.002.002-.002L28.463.701a2.609 2.609 0 0 0-1.1-.248ZM.28 1.93C.107 2.283 0 2.673 0 3.09v15.82c0 .418.107.808.28 1.16L9.32 11 .28 1.93Zm29.44 0L20.68 11l9.04 9.07c.173-.351.28-.741.28-1.16V3.09c0-.418-.107-.808-.28-1.16Z"/></svg>