<svg viewBox="0 0 31 30"><path d="M19.383 17.972a.992.992 0 0 0 0 1.981.992.992 0 0 0 0-1.981Zm-7.925-7.925a.992.992 0 0 0 0 1.981.992.992 0 0 0 0-1.981Z"/><path d="m30.13 14.3-3.813-3.813V5.094a.99.99 0 0 0-.99-.991h-5.394L16.121.29a.99.99 0 0 0-1.401 0l-3.813 3.813H5.514a.99.99 0 0 0-.99.99v5.394L.71 14.3a.99.99 0 0 0 0 1.4l3.812 3.813v5.393c0 .547.444.99.99.99h5.394l3.813 3.813a.987.987 0 0 0 1.4 0l3.813-3.812h5.394a.99.99 0 0 0 .99-.99v-5.394L30.13 15.7a.99.99 0 0 0 0-1.4ZM8.486 11.037a2.975 2.975 0 0 1 2.972-2.972 2.975 2.975 0 0 1 2.972 2.972 2.975 2.975 0 0 1-2.972 2.972 2.975 2.975 0 0 1-2.972-2.972Zm3.672 8.626a.99.99 0 1 1-1.4-1.4l7.924-7.926a.99.99 0 1 1 1.401 1.4l-7.925 7.926Zm7.225 2.271a2.975 2.975 0 0 1-2.972-2.972 2.975 2.975 0 0 1 2.972-2.972 2.975 2.975 0 0 1 2.972 2.972 2.975 2.975 0 0 1-2.972 2.972Z"/></svg>