<svg viewBox="0 0 30 30"><g clip-path="url(#slots__a)"><path d="M28.447 11.347a.879.879 0 0 0-.879.88V17.9H25.81v-3.545a.879.879 0 0 0-.878-.88h-6.157v10.606h6.157a.879.879 0 0 0 .879-.879v-3.545h2.636a.879.879 0 0 0 .88-.879v-6.553a.879.879 0 0 0-.88-.879Zm-4.174 5.65-1.879 4.273a.88.88 0 1 1-1.609-.708l1.337-3.04h-1.005a.879.879 0 0 1 0-1.758h2.351a.88.88 0 0 1 .805 1.233ZM13.553 6.189l-.305-.39-.277.359a.88.88 0 0 1-.393.288l-.464.17.255.374a.879.879 0 0 1 .152.462l.018.494.435-.127a.88.88 0 0 1 .487-.001l.475.135.014-.453a.879.879 0 0 1 .149-.463l.275-.41-.426-.154a.88.88 0 0 1-.395-.284Z"/><path d="M24.17 8.086a.879.879 0 0 0-.879-.879h-1.283a8.942 8.942 0 0 0-2.776-4.89A8.906 8.906 0 0 0 13.242 0c-2.213 0-4.34.823-5.99 2.318a8.942 8.942 0 0 0-2.776 4.889H3.193a.879.879 0 0 0-.879.879v3.633H24.17V8.086Zm-7.708-1.417L15.7 7.806l-.04 1.327a.879.879 0 0 1-1.118.819l-1.317-.374-1.274.372a.879.879 0 0 1-1.125-.81l-.051-1.369-.748-1.097a.88.88 0 0 1 .423-1.32l1.286-.471.812-1.05a.879.879 0 0 1 .692-.342h.003c.27 0 .525.124.691.336l.846 1.077 1.25.448a.879.879 0 0 1 .433 1.317ZM15.244 25.84H11.24c-1.141 0-2.07.929-2.07 2.07 0 1.142.929 2.07 2.07 2.07h4.004c1.142 0 2.07-.928 2.07-2.07 0-1.141-.928-2.07-2.07-2.07Zm3.828 2.07c0 .77-.23 1.489-.623 2.09h4.842a.879.879 0 0 0 .879-.879V25.84h-5.708c.385.597.61 1.308.61 2.07ZM8.023 25.84H2.314v3.281a.88.88 0 0 0 .88.879h4.841a3.804 3.804 0 0 1-.623-2.09c0-.762.225-1.473.61-2.07ZM7.71 13.477H1.553a.879.879 0 0 0-.88.878v8.848a.88.88 0 0 0 .88.879h6.156V13.477Zm-1.538 3.52-1.879 4.272a.88.88 0 1 1-1.609-.707l1.337-3.04H3.016a.879.879 0 0 1 0-1.758h2.351a.88.88 0 0 1 .805 1.233Zm10.845 7.085V13.477h-7.55v10.605h7.55Zm-4.95-8.318h2.35a.879.879 0 0 1 .805 1.233l-1.878 4.272a.88.88 0 1 1-1.61-.707l1.337-3.04h-1.004a.879.879 0 0 1 0-1.758Z"/></g><defs><clipPath id="slots__a"><path fill="#fff" d="M0 0h30v30H0z"/></clipPath></defs></svg>