<svg viewBox="0 0 31 30"><g clip-path="url(#sports__a)"><path d="M23.37 19.277a6.162 6.162 0 0 0 4.918-2.448A7.494 7.494 0 0 0 23.369 15c-1.88 0-3.6.69-4.918 1.83a6.162 6.162 0 0 0 4.918 2.447Z"/><path d="M29.49 18.146a7.92 7.92 0 0 1-6.12 2.89 7.92 7.92 0 0 1-6.12-2.89 7.456 7.456 0 0 0-1.395 4.354 7.46 7.46 0 0 0 1.395 4.354 7.919 7.919 0 0 1 6.12-2.889 7.919 7.919 0 0 1 6.12 2.889 7.456 7.456 0 0 0 1.394-4.354 7.456 7.456 0 0 0-1.395-4.354Z"/><path d="M23.37 25.723a6.162 6.162 0 0 0-4.919 2.448A7.494 7.494 0 0 0 23.37 30c1.881 0 3.6-.69 4.919-1.83a6.162 6.162 0 0 0-4.919-2.447Zm-9.276-3.253c.014-4.4 3.12-8.088 7.258-9.007-.27-2.604-1.222-5.142-2.795-7.42a17.036 17.036 0 0 0-.44-.607c-.027.024-.054.048-.082.07-1.844 1.55-4.286 2.404-6.877 2.404-2.59 0-5.033-.853-6.877-2.403l-.082-.071c-.151.2-.298.402-.44.607C1.88 8.767.884 11.865.884 15c0 3.135.994 6.233 2.875 8.957.142.206.289.408.44.607l.082-.07c1.844-1.55 4.286-2.404 6.877-2.404 1.01 0 1.998.13 2.936.38Zm-3.816-3.251v-.059h-.06a.88.88 0 1 1 0-1.758h.06V15.88h-.06a.88.88 0 1 1 0-1.758h.06v-1.523h-.06a.88.88 0 1 1 0-1.758h.06v-.059a.88.88 0 0 1 1.76 0v.059h.06a.88.88 0 1 1 0 1.758h-.06v1.523h.06a.88.88 0 1 1 0 1.758h-.06v1.523h.06a.88.88 0 1 1 0 1.758h-.06v.059a.88.88 0 0 1-1.76 0Z"/><path d="M16.987 4.089A17.826 17.826 0 0 0 11.532.083a.884.884 0 0 0-.748 0A17.825 17.825 0 0 0 5.33 4.09c1.466 1.27 3.537 2.063 5.828 2.063 2.292 0 4.363-.793 5.829-2.063Zm-5.829 19.759c-2.291 0-4.362.793-5.828 2.063a17.827 17.827 0 0 0 5.454 4.006.878.878 0 0 0 .748 0 17.55 17.55 0 0 0 3.945-2.557 9.188 9.188 0 0 1-1.192-2.992 9.5 9.5 0 0 0-3.127-.52Z"/></g><defs><clipPath id="sports__a"><path fill="#fff" d="M0 0h30v30H0z" transform="translate(.855)"/></clipPath></defs></svg>