<svg viewBox="0 0 28 30"><path fill="#149063" d="M11.857 0a3.231 3.231 0 0 0-3.214 3.214v1.072h-7.5a1.071 1.071 0 0 0 0 2.143h1.126l.954 18.27C3.373 27.577 5.628 30 8.578 30h10.779c2.95 0 5.195-2.426 5.355-5.299L25.727 6.43h1.13a1.071 1.071 0 1 0 0-2.143h-7.5V3.214A3.231 3.231 0 0 0 16.143 0h-4.286Zm0 2.143h4.286c.612 0 1.071.46 1.071 1.071v1.072h-6.428V3.214c0-.612.459-1.071 1.071-1.071Zm-1.071 8.571c.591 0 1.071.48 1.071 1.072V22.5a1.071 1.071 0 0 1-2.143 0V11.786c0-.592.48-1.072 1.072-1.072Zm6.428 0c.592 0 1.072.48 1.072 1.072V22.5a1.071 1.071 0 0 1-2.143 0V11.786c0-.592.48-1.072 1.071-1.072Z"/></svg>