<svg viewBox="0 0 30 23"><path d="M28.044 9.143V.958a.96.96 0 0 0-.635-.897.995.995 0 0 0-1.08.266l-6.007 6.725L15.814.426c-.363-.533-1.265-.533-1.628 0L9.677 7.052 3.671.327A.994.994 0 0 0 2.591.06a.96.96 0 0 0-.634.897v8.185C.789 9.807 0 11.043 0 12.458s.789 2.65 1.956 3.315v6.269a.97.97 0 0 0 .979.958h24.13a.97.97 0 0 0 .979-.958v-6.27C29.21 15.11 30 13.874 30 12.459s-.789-2.65-1.956-3.315ZM15 10.541c1.079 0 1.956.86 1.956 1.917S16.08 14.375 15 14.375s-1.957-.86-1.957-1.917.878-1.917 1.957-1.917ZM1.957 12.458c0-1.057.877-1.917 1.956-1.917s1.957.86 1.957 1.917-.878 1.917-1.957 1.917c-1.079 0-1.956-.86-1.956-1.917Zm24.13 8.625H3.913v-1.916h22.174v1.916Zm0-6.708c-1.079 0-1.957-.86-1.957-1.917s.878-1.917 1.957-1.917c1.079 0 1.956.86 1.956 1.917s-.877 1.917-1.956 1.917Z"/></svg>