<svg viewBox="0 0 30 22"><path d="M25.365 0h-1.332c2.122 1.985 1.542 4.274 1.618 6.804h2.7c.534 0 .982-.4.982-.907v-2.23C29.333 1.642 27.555 0 25.365 0ZM19.27 8.393c-3.74.13-3.74 5.085 0 5.216h9.082c.337 0 .67.06.981.172V8.22a2.897 2.897 0 0 1-.981.172h-9.083Zm0 3.402c-.475 0-.86-.356-.86-.794.042-1.052 1.676-1.052 1.719 0 0 .438-.386.794-.86.794Zm9.081 3.401h-2.7c-.075 2.53.502 4.824-1.618 6.804h1.332c2.19 0 3.968-1.643 3.968-3.667v-2.23c0-.509-.449-.907-.982-.907Z"/><path d="M14.728 11c0-2.314 2.037-4.196 4.541-4.196h4.664V3.667c0-2.025-1.78-3.667-3.969-3.667H3.968C1.78 0 0 1.64 0 3.667v14.666C0 20.362 1.781 22 3.968 22h15.996c2.191 0 3.969-1.643 3.969-3.667v-3.137h-4.664c-2.504 0-4.541-1.882-4.541-4.196Z"/></svg>