<svg viewBox="0 0 24 24"><path d="M1.414 21.172c-.515 0-.998-.14-1.414-.382v1.796C0 23.366.634 24 1.414 24h21.172c.78 0 1.414-.634 1.414-1.414V20.79a2.802 2.802 0 0 1-1.414.382H1.414Zm0-4.235c-.515 0-.998-.14-1.414-.381v1.795c0 .78.634 1.415 1.414 1.415h21.172c.78 0 1.414-.635 1.414-1.415v-1.795a2.802 2.802 0 0 1-1.414.381H1.414Zm0-1.406h2.204A4.389 4.389 0 0 0 0 11.913v2.204c0 .78.634 1.414 1.414 1.414Zm18.968 0h2.204c.78 0 1.414-.634 1.414-1.414v-2.204a4.389 4.389 0 0 0-3.618 3.618ZM3.618 0H1.414C.634 0 0 .634 0 1.414v2.204A4.389 4.389 0 0 0 3.618 0ZM12 5.081a2.687 2.687 0 0 0-2.685 2.684A2.687 2.687 0 0 0 12 10.45a2.687 2.687 0 0 0 2.684-2.685A2.687 2.687 0 0 0 12 5.081Z"/><path d="M18.962 0H5.038A5.796 5.796 0 0 1 0 5.038v5.455a5.796 5.796 0 0 1 5.038 5.038h13.924A5.796 5.796 0 0 1 24 10.493V5.038A5.796 5.796 0 0 1 18.962 0ZM12 11.856a4.095 4.095 0 0 1-4.09-4.09A4.095 4.095 0 0 1 12 3.675a4.095 4.095 0 0 1 4.09 4.09A4.095 4.095 0 0 1 12 11.857Z"/><path d="M22.586 0h-2.204A4.389 4.389 0 0 0 24 3.618V1.414C24 .634 23.366 0 22.586 0Z"/></svg>