<svg viewBox="0 0 15 13" fill="#525252" xmlns="http://www.w3.org/2000/svg">
<path d="M4.02125 4.35375C3.92743 4.25993 3.87472 4.13268 3.87472 4C3.87472 3.86732 3.92743 3.74007 4.02125 3.64625C4.11507 3.55243 4.24232 3.49972 4.375 3.49972C4.50768 3.49972 4.63493 3.55243 4.72875 3.64625L6.875 5.79313V0.5C6.875 0.367392 6.92768 0.240215 7.02145 0.146447C7.11521 0.0526784 7.24239 0 7.375 0C7.50761 0 7.63479 0.0526784 7.72855 0.146447C7.82232 0.240215 7.875 0.367392 7.875 0.5V5.79313L10.0212 3.64625C10.1151 3.55243 10.2423 3.49972 10.375 3.49972C10.5077 3.49972 10.6349 3.55243 10.7288 3.64625C10.8226 3.74007 10.8753 3.86732 10.8753 4C10.8753 4.13268 10.8226 4.25993 10.7288 4.35375L7.72875 7.35375C7.68231 7.40024 7.62717 7.43712 7.56647 7.46228C7.50577 7.48744 7.44071 7.50039 7.375 7.50039C7.30929 7.50039 7.24423 7.48744 7.18353 7.46228C7.12283 7.43712 7.06769 7.40024 7.02125 7.35375L4.02125 4.35375ZM14.375 7.5V11.5C14.375 11.7652 14.2696 12.0196 14.0821 12.2071C13.8946 12.3946 13.6402 12.5 13.375 12.5H1.375C1.10978 12.5 0.85543 12.3946 0.667893 12.2071C0.480357 12.0196 0.375 11.7652 0.375 11.5V7.5C0.375 7.23478 0.480357 6.98043 0.667893 6.79289C0.85543 6.60536 1.10978 6.5 1.375 6.5H4.65C4.68284 6.49997 4.71536 6.50642 4.74571 6.51897C4.77606 6.53151 4.80364 6.54992 4.82688 6.57312L6.3125 8.0625C6.45186 8.20234 6.61744 8.3133 6.79977 8.389C6.9821 8.46471 7.17758 8.50368 7.375 8.50368C7.57242 8.50368 7.7679 8.46471 7.95023 8.389C8.13256 8.3133 8.29814 8.20234 8.4375 8.0625L9.925 6.575C9.97116 6.5279 10.0341 6.50094 10.1 6.5H13.375C13.6402 6.5 13.8946 6.60536 14.0821 6.79289C14.2696 6.98043 14.375 7.23478 14.375 7.5ZM11.875 9.5C11.875 9.35166 11.831 9.20666 11.7486 9.08332C11.6662 8.95999 11.5491 8.86386 11.412 8.80709C11.275 8.75033 11.1242 8.73547 10.9787 8.76441C10.8332 8.79335 10.6996 8.86478 10.5947 8.96967C10.4898 9.07456 10.4184 9.2082 10.3894 9.35368C10.3605 9.49917 10.3753 9.64997 10.4321 9.78701C10.4889 9.92406 10.585 10.0412 10.7083 10.1236C10.8317 10.206 10.9767 10.25 11.125 10.25C11.3239 10.25 11.5147 10.171 11.6553 10.0303C11.796 9.88968 11.875 9.69891 11.875 9.5Z" />
</svg>
