<svg viewBox="0 0 24 24" fill="#525252" xmlns="http://www.w3.org/2000/svg">
<path d="M19.5885 8.23672V8.61268C19.4273 9.10735 19.1089 9.39624 18.5688 9.44373H5.02954C4.09038 9.36458 3.68327 8.43459 4.27982 7.72622C6.44029 6.61024 8.62092 5.32804 10.8177 4.29121C11.4384 3.99836 11.8576 3.87568 12.5267 4.16457C14.5824 5.37553 16.9686 6.29365 19.0001 7.51648C19.3024 7.69852 19.4837 7.9043 19.5885 8.24068V8.23672Z" />
<path d="M19.5901 19.3013V19.7168C19.457 20.2273 19.0741 20.623 18.534 20.6982L4.91014 20.6745C3.53163 20.2273 3.80975 18.3278 5.26484 18.2803H18.3808C19.0137 18.3357 19.4288 18.7077 19.5941 19.3013H19.5901Z" />
<path d="M6.77437 11.042C7.41122 10.9826 8.03196 11.4733 8.09242 12.1065C8.20125 13.2502 8.01583 14.5641 8.08033 15.7236C7.70144 17.1245 5.74653 16.9543 5.62561 15.4703C5.55709 14.6155 5.55709 13.1157 5.62561 12.2569C5.67801 11.6158 6.10124 11.1013 6.77437 11.042Z" />
<path d="M11.6962 11.042C12.3331 10.9826 12.9538 11.4733 13.0143 12.1065C13.1231 13.2502 12.9377 14.5641 13.0022 15.7236C12.6233 17.1245 10.6684 16.9543 10.5475 15.4703C10.479 14.6155 10.479 13.1157 10.5475 12.2569C10.5999 11.6158 11.0231 11.1013 11.6962 11.042Z" />
<path d="M16.6181 11.042C17.255 10.9826 17.8757 11.4733 17.9362 12.1065C18.045 13.2502 17.8596 14.5641 17.9241 15.7236C17.5452 17.1245 15.5903 16.9543 15.4694 15.4703C15.4008 14.6155 15.4008 13.1157 15.4694 12.2569C15.5218 11.6158 15.945 11.1013 16.6181 11.042Z" />
</svg>
