<svg viewBox="0 0 16 16" fill="#525252" xmlns="http://www.w3.org/2000/svg">
<path d="M13.8638 10.4979C13.5169 9.90029 13.0012 8.20937 13.0012 6.00086C13.0012 4.67455 12.4743 3.40256 11.5365 2.46472C10.5986 1.52688 9.32662 1 8.00031 1C6.674 1 5.40201 1.52688 4.46417 2.46472C3.52632 3.40256 2.99945 4.67455 2.99945 6.00086C2.99945 8.21 2.48311 9.90029 2.13617 10.4979C2.04758 10.6498 2.00061 10.8224 2.00001 10.9983C1.9994 11.1742 2.04518 11.3471 2.13274 11.4996C2.22029 11.6522 2.34651 11.7789 2.49868 11.8671C2.65084 11.9553 2.82358 12.0018 2.99945 12.0019H5.55051C5.66589 12.5665 5.97273 13.0739 6.41912 13.4383C6.86552 13.8027 7.42407 14.0017 8.00031 14.0017C8.57655 14.0017 9.13511 13.8027 9.5815 13.4383C10.0279 13.0739 10.3347 12.5665 10.4501 12.0019H13.0012C13.177 12.0017 13.3496 11.9551 13.5017 11.8669C13.6538 11.7786 13.7799 11.6519 13.8674 11.4993C13.9549 11.3468 14.0006 11.174 14 10.9981C13.9994 10.8223 13.9524 10.6498 13.8638 10.4979ZM8.00031 13.0021C7.69015 13.002 7.38763 12.9058 7.13441 12.7266C6.88119 12.5475 6.68971 12.2943 6.58632 12.0019H9.41431C9.31092 12.2943 9.11944 12.5475 8.86621 12.7266C8.61299 12.9058 8.31048 13.002 8.00031 13.0021Z" />
</svg>
