<svg viewBox="0 0 14 14" fill="#525252" xmlns="http://www.w3.org/2000/svg">
<path d="M13.625 7.50004C13.6248 8.11066 13.4648 8.7106 13.161 9.24028C12.8572 9.76995 12.4201 10.2109 11.8931 10.5194C11.3662 10.8279 10.7677 10.9931 10.1571 10.9987C9.54647 11.0043 8.94504 10.8501 8.4125 10.5513L9.10375 12.8563C9.12616 12.9309 9.1308 13.0098 9.11732 13.0866C9.10383 13.1633 9.07258 13.2359 9.02607 13.2984C8.97956 13.361 8.91907 13.4118 8.84943 13.4468C8.7798 13.4818 8.70294 13.5 8.625 13.5H5.625C5.54706 13.5 5.4702 13.4818 5.40057 13.4468C5.33093 13.4118 5.27044 13.361 5.22393 13.2984C5.17742 13.2359 5.14617 13.1633 5.13268 13.0866C5.1192 13.0098 5.12384 12.9309 5.14625 12.8563L5.8375 10.5513C5.30496 10.8501 4.70353 11.0043 4.09293 10.9987C3.48234 10.9931 2.88383 10.8279 2.35686 10.5194C1.82989 10.2109 1.39279 9.76995 1.08897 9.24028C0.78516 8.7106 0.625206 8.11066 0.625 7.50004C0.625 5.50004 1.72813 3.57254 3.8125 1.92066C4.76946 1.16598 5.81694 0.53379 6.93062 0.0387887C6.99155 0.0131079 7.05701 -0.00012207 7.12313 -0.00012207C7.18924 -0.00012207 7.2547 0.0131079 7.31563 0.0387887C8.43062 0.533514 9.47938 1.16571 10.4375 1.92066C12.5219 3.57254 13.625 5.50004 13.625 7.50004Z" />
</svg>
