<svg viewBox="0 0 24 24" fill="#525252" xmlns="http://www.w3.org/2000/svg">
<path d="M19.5053 7.90804C20.5779 8.15707 21.4495 9.06405 21.591 10.1677C21.591 12.4599 21.5867 15.0889 21.5867 17.3655C21.5867 18.7267 20.1279 19.6662 18.829 19.72H5.3007C3.91688 19.6252 3.13017 18.7833 3 17.4193V6.44781C3.1132 5.21823 4.09517 4.31408 5.26816 4.06788C9.20595 3.93204 13.1636 4.04948 17.1084 4.00703C17.997 4.04099 18.8813 4.57584 19.262 5.3866C19.6426 6.19737 19.4586 7.06897 19.5053 7.90945V7.90804ZM18.0126 7.82031V6.26387C18.0126 6.19029 17.7989 5.82382 17.7296 5.75732C17.5838 5.61724 17.3065 5.51819 17.1056 5.49839L5.72518 5.50405C4.93423 5.58611 4.23525 6.22708 4.572 7.06473C4.74604 7.49912 5.36013 7.82173 5.81291 7.82173H18.0126V7.82031ZM11.9623 9.74039C8.8225 10.0121 7.20522 13.5876 9.05172 16.1558C10.7652 18.5399 14.5643 18.2343 15.8845 15.6152C17.3065 12.7953 15.1105 9.46872 11.9623 9.74181V9.74039Z" />
<path d="M12.9948 13.816C13.2891 13.6278 13.5254 13.1665 13.8749 13.093C14.5173 12.9571 14.9659 13.6519 14.5527 14.1881C14.2895 14.5305 13.0557 15.7743 12.7175 16.0247C12.426 16.2398 12.1713 16.2412 11.8784 16.0247C11.57 15.7969 10.2711 14.498 10.0433 14.1895C9.54802 13.5203 10.3149 12.7788 10.9488 13.1906C11.1681 13.3335 11.3634 13.6717 11.6011 13.816V11.9341C11.6011 11.9143 11.7214 11.6554 11.7483 11.6157C11.9761 11.2762 12.542 11.2578 12.8109 11.562C12.8647 11.6228 12.9962 11.9171 12.9962 11.9808V13.816H12.9948Z" />
</svg>
