<svg viewBox="0 0 18 14" fill="#525252" xmlns="http://www.w3.org/2000/svg">
<path d="M17.2732 10.2168C17.2735 10.2135 17.2735 10.2102 17.2732 10.207L16.1207 4.28875C16.1207 4.28453 16.1207 4.28031 16.1207 4.27609C15.9428 3.30441 15.43 2.4258 14.6715 1.79302C13.9129 1.16023 12.9566 0.813284 11.9688 0.8125H5.77354C4.78294 0.81212 3.82393 1.16103 3.06517 1.79788C2.30641 2.43472 1.79649 3.31871 1.6251 4.29437L0.478308 10.207C0.477969 10.2102 0.477969 10.2135 0.478308 10.2168C0.384963 10.7468 0.462985 11.2928 0.701048 11.7755C0.93911 12.2582 1.32482 12.6524 1.80218 12.901C2.27953 13.1495 2.82369 13.2394 3.35563 13.1577C3.88758 13.076 4.37963 12.8268 4.76034 12.4464L4.78495 12.4204L7.57565 9.25H10.1772L12.9693 12.4204C12.9771 12.4295 12.9855 12.438 12.9939 12.4464C13.4684 12.9199 14.111 13.1863 14.7813 13.1875C15.1508 13.1873 15.5157 13.1061 15.8505 12.9498C16.1853 12.7935 16.4818 12.5658 16.7192 12.2827C16.9566 11.9996 17.1291 11.668 17.2247 11.3111C17.3203 10.9542 17.3366 10.5807 17.2724 10.2168H17.2732ZM7.18753 5.875H6.62503V6.4375C6.62503 6.58668 6.56576 6.72976 6.46027 6.83525C6.35478 6.94074 6.21171 7 6.06253 7C5.91334 7 5.77027 6.94074 5.66478 6.83525C5.55929 6.72976 5.50003 6.58668 5.50003 6.4375V5.875H4.93753C4.78834 5.875 4.64527 5.81574 4.53978 5.71025C4.43429 5.60476 4.37503 5.46168 4.37503 5.3125C4.37503 5.16332 4.43429 5.02024 4.53978 4.91475C4.64527 4.80926 4.78834 4.75 4.93753 4.75H5.50003V4.1875C5.50003 4.03832 5.55929 3.89524 5.66478 3.78975C5.77027 3.68426 5.91334 3.625 6.06253 3.625C6.21171 3.625 6.35478 3.68426 6.46027 3.78975C6.56576 3.89524 6.62503 4.03832 6.62503 4.1875V4.75H7.18753C7.33671 4.75 7.47978 4.80926 7.58527 4.91475C7.69076 5.02024 7.75003 5.16332 7.75003 5.3125C7.75003 5.46168 7.69076 5.60476 7.58527 5.71025C7.47978 5.81574 7.33671 5.875 7.18753 5.875ZM10 5.3125C10 5.16332 10.0593 5.02024 10.1648 4.91475C10.2703 4.80926 10.4133 4.75 10.5625 4.75H12.25C12.3992 4.75 12.5423 4.80926 12.6478 4.91475C12.7533 5.02024 12.8125 5.16332 12.8125 5.3125C12.8125 5.46168 12.7533 5.60476 12.6478 5.71025C12.5423 5.81574 12.3992 5.875 12.25 5.875H10.5625C10.4133 5.875 10.2703 5.81574 10.1648 5.71025C10.0593 5.60476 10 5.46168 10 5.3125ZM15.9323 11.4627C15.8269 11.6144 15.6925 11.7437 15.5368 11.843C15.3811 11.9424 15.2072 12.0098 15.0253 12.0414C14.8051 12.0799 14.579 12.0656 14.3655 11.9997C14.1519 11.9339 13.9571 11.8183 13.7969 11.6624L11.6735 9.25H11.9688C12.6869 9.2501 13.3932 9.06687 14.0207 8.71767C14.6483 8.36847 15.1763 7.86486 15.5547 7.25453L16.1692 10.4186C16.2005 10.5997 16.1957 10.7851 16.155 10.9643C16.1144 11.1435 16.0387 11.3129 15.9323 11.4627Z" />
</svg>
