<svg viewBox="0 0 14 15" fill="#525252" xmlns="http://www.w3.org/2000/svg">
<path d="M9.46861 3.75C9.46861 3.89834 9.42737 4.04334 9.35011 4.16668C9.27285 4.29002 9.16304 4.38614 9.03456 4.44291C8.90608 4.49968 8.76471 4.51453 8.62831 4.48559C8.49192 4.45665 8.36664 4.38522 8.2683 4.28033C8.16997 4.17544 8.103 4.0418 8.07587 3.89632C8.04874 3.75083 8.06267 3.60003 8.11588 3.46299C8.1691 3.32594 8.25922 3.20881 8.37485 3.1264C8.49048 3.04399 8.62642 3 8.76549 3C8.95197 3 9.13081 3.07902 9.26267 3.21967C9.39453 3.36032 9.46861 3.55109 9.46861 3.75ZM11.9295 8.6925C11.046 9.995 9.73053 10.8725 8.02135 11.3013C6.84478 11.5963 5.47017 11.6763 3.91275 11.5469C4.0065 12.2894 4.13775 13.0715 4.3065 13.8931C4.333 14.0226 4.31023 14.158 4.24322 14.2695C4.1762 14.3811 4.07041 14.4597 3.94908 14.4881C3.916 14.4961 3.8822 14.5 3.8483 14.5C3.74144 14.4999 3.63781 14.4609 3.55458 14.3894C3.47135 14.3179 3.41352 14.2182 3.39068 14.1069C3.19967 13.1752 3.05494 12.2873 2.9565 11.4431C2.16666 11.3385 1.33502 11.1842 0.461582 10.98C0.401448 10.9659 0.344502 10.9394 0.293996 10.9018C0.24349 10.8643 0.200412 10.8165 0.167223 10.7611C0.100193 10.6494 0.0775087 10.5139 0.10416 10.3844C0.130811 10.2548 0.204615 10.1419 0.309335 10.0704C0.414055 9.99889 0.541113 9.9747 0.662558 10.0031C1.43209 10.1831 2.16451 10.3233 2.85982 10.4238C2.73736 8.76375 2.81412 7.29875 3.0901 6.045C3.49205 4.22188 4.31529 2.81875 5.5358 1.875C6.36314 1.235 7.83619 0.477501 10.129 0.500001C11.3706 0.513126 12.5213 0.770626 12.696 0.880001C12.7644 0.923021 12.8214 0.983884 12.8618 1.05688C12.9643 1.24438 13.2057 2.46875 13.218 3.79313C13.2309 5.14438 13.0176 7.09 11.9295 8.6925ZM12.0719 1.7225C11.316 1.55778 10.5452 1.4842 9.77389 1.50313C8.34771 1.54313 7.15416 1.90875 6.21373 2.59C6.34156 3.97077 6.91407 5.2616 7.83379 6.24276C8.75352 7.22391 9.96361 7.83474 11.2581 7.97125C11.8973 6.97125 12.2401 5.695 12.2776 4.17375C12.2955 3.35105 12.2267 2.52882 12.0725 1.7225H12.0719Z" />
</svg>
