<svg viewBox="0 0 13 13" fill="#525252" xmlns="http://www.w3.org/2000/svg">
<path d="M12.625 6.50003V12.5C12.625 12.6326 12.5723 12.7598 12.4786 12.8536C12.3848 12.9473 12.2576 13 12.125 13H8.625C8.49239 13 8.36521 12.9473 8.27145 12.8536C8.17768 12.7598 8.125 12.6326 8.125 12.5V9.25003C8.125 9.18372 8.09866 9.12013 8.05178 9.07325C8.00489 9.02637 7.9413 9.00003 7.875 9.00003H5.375C5.3087 9.00003 5.24511 9.02637 5.19822 9.07325C5.15134 9.12013 5.125 9.18372 5.125 9.25003V12.5C5.125 12.6326 5.07232 12.7598 4.97855 12.8536C4.88479 12.9473 4.75761 13 4.625 13H1.125C0.992392 13 0.865215 12.9473 0.771447 12.8536C0.677679 12.7598 0.625 12.6326 0.625 12.5V6.50003C0.625123 6.23486 0.73056 5.98059 0.918125 5.79315L5.91813 0.79315C6.10564 0.605755 6.3599 0.500488 6.625 0.500488C6.8901 0.500488 7.14436 0.605755 7.33187 0.79315L12.3319 5.79315C12.5194 5.98059 12.6249 6.23486 12.625 6.50003Z" />
</svg>
