<svg viewBox="0 0 32 32" fill="none" xmlns="http://www.w3.org/2000/svg">
<path d="M22.6778 27.9933L9.3445 28.006C6.41117 28.0086 4.00917 25.6113 4.00583 22.678L3.99317 9.34462C3.9905 6.41129 6.38783 4.00929 9.32117 4.00596L22.6545 3.99329C25.5878 3.99062 27.9898 6.38796 27.9932 9.32129L28.0058 22.6546C28.0092 25.5886 25.6112 27.9906 22.6778 27.9933Z" fill="url(#paint0_radial_1893_50693)"/>
<path d="M22.6778 27.9933L9.3445 28.006C6.41117 28.0086 4.00917 25.6113 4.00583 22.678L3.99317 9.34462C3.9905 6.41129 6.38783 4.00929 9.32117 4.00596L22.6545 3.99329C25.5878 3.99062 27.9898 6.38796 27.9932 9.32129L28.0058 22.6546C28.0092 25.5886 25.6112 27.9906 22.6778 27.9933Z" fill="#525252"/>
<path d="M15.9997 20.6667C13.427 20.6667 11.333 18.5734 11.333 16C11.333 13.4267 13.427 11.3334 15.9997 11.3334C18.5723 11.3334 20.6663 13.4267 20.6663 16C20.6663 18.5734 18.5723 20.6667 15.9997 20.6667ZM15.9997 12.6667C14.1617 12.6667 12.6663 14.162 12.6663 16C12.6663 17.838 14.1617 19.3334 15.9997 19.3334C17.8377 19.3334 19.333 17.838 19.333 16C19.333 14.162 17.8377 12.6667 15.9997 12.6667Z" fill="white"/>
<path d="M21 12C21.5523 12 22 11.5523 22 11C22 10.4477 21.5523 10 21 10C20.4477 10 20 10.4477 20 11C20 11.5523 20.4477 12 21 12Z" fill="white"/>
<path d="M19.9997 24.6667H11.9997C9.42701 24.6667 7.33301 22.5734 7.33301 20V12C7.33301 9.42671 9.42701 7.33337 11.9997 7.33337H19.9997C22.5723 7.33337 24.6663 9.42671 24.6663 12V20C24.6663 22.5734 22.5723 24.6667 19.9997 24.6667ZM11.9997 8.66671C10.1617 8.66671 8.66634 10.162 8.66634 12V20C8.66634 21.838 10.1617 23.3334 11.9997 23.3334H19.9997C21.8377 23.3334 23.333 21.838 23.333 20V12C23.333 10.162 21.8377 8.66671 19.9997 8.66671H11.9997Z" fill="white"/>
<defs>
<radialGradient id="paint0_radial_1893_50693" cx="0" cy="0" r="1" gradientUnits="userSpaceOnUse" gradientTransform="translate(12.92 28.0234) scale(29.9326)">
<stop stop-color="#FFDD55"/>
<stop offset="0.328" stop-color="#FF543F"/>
<stop offset="0.3484" stop-color="#FC5245"/>
<stop offset="0.5039" stop-color="#E64771"/>
<stop offset="0.6433" stop-color="#D53E91"/>
<stop offset="0.7606" stop-color="#CC39A4"/>
<stop offset="0.8414" stop-color="#C837AB"/>
</radialGradient>
</defs>
</svg>
