<svg viewBox="0 0 32 32" fill="none" xmlns="http://www.w3.org/2000/svg">
<path d="M8.33333 28H23.6667C26.06 28 28 26.06 28 23.6667V8.33333C28 5.94 26.06 4 23.6667 4H8.33333C5.94 4 4 5.94 4 8.33333V23.6667C4 26.06 5.94 28 8.33333 28Z" fill="#525252"/>
<path d="M24.7423 14.9447C24.7423 11.0347 20.8223 7.85339 16.0043 7.85339C11.1863 7.85339 7.26562 11.0347 7.26562 14.9447C7.26562 18.4501 10.3743 21.3861 14.5736 21.9414C14.8583 22.0027 15.2456 22.1294 15.3436 22.3721C15.4316 22.5927 15.401 22.9387 15.3716 23.1621C15.3716 23.1621 15.2696 23.7787 15.247 23.9101C15.209 24.1307 15.0716 24.7741 16.0036 24.3814C16.9363 23.9887 21.0356 21.4181 22.869 19.3074H22.8683C24.1356 17.9194 24.7423 16.5094 24.7423 14.9447ZM12.5836 17.2714H10.8476C10.595 17.2714 10.3896 17.0661 10.3896 16.8127V13.3401C10.3896 13.0874 10.595 12.8821 10.8476 12.8821C11.1003 12.8821 11.3056 13.0874 11.3056 13.3401V16.3541H12.5836C12.8363 16.3541 13.0416 16.5594 13.0416 16.8121C13.0416 17.0654 12.8363 17.2714 12.5836 17.2714ZM14.379 16.8127C14.379 17.0654 14.1736 17.2714 13.921 17.2714C13.6683 17.2714 13.463 17.0661 13.463 16.8127V13.3401C13.463 13.0874 13.6683 12.8821 13.921 12.8821C14.1736 12.8821 14.379 13.0874 14.379 13.3401V16.8127ZM18.559 16.8127C18.559 17.0107 18.4336 17.1854 18.2456 17.2474C18.1983 17.2634 18.149 17.2714 18.1003 17.2714C17.957 17.2714 17.8203 17.2027 17.7343 17.0881L15.955 14.6647V16.8127C15.955 17.0654 15.7496 17.2714 15.4963 17.2714C15.2436 17.2714 15.0376 17.0661 15.0376 16.8127V13.3401C15.0376 13.1427 15.1636 12.9681 15.351 12.9054C15.3983 12.8894 15.447 12.8821 15.4963 12.8821C15.639 12.8821 15.7763 12.9507 15.8623 13.0654L17.6423 15.4887V13.3401C17.6423 13.0874 17.8483 12.8821 18.101 12.8821C18.3536 12.8821 18.559 13.0874 18.559 13.3401V16.8127ZM21.3683 14.6181C21.621 14.6181 21.827 14.8234 21.827 15.0767C21.827 15.3294 21.6216 15.5347 21.3683 15.5347H20.0903V16.3547H21.3683C21.621 16.3547 21.827 16.5601 21.827 16.8127C21.827 17.0654 21.621 17.2714 21.3683 17.2714H19.6323C19.3803 17.2714 19.1743 17.0661 19.1743 16.8127V15.0774V15.0761V13.3421C19.1743 13.3414 19.1743 13.3414 19.1743 13.3407C19.1743 13.0881 19.3796 12.8827 19.6323 12.8827H21.3683C21.621 12.8827 21.827 13.0881 21.827 13.3407C21.827 13.5934 21.6216 13.7987 21.3683 13.7987H20.0903V14.6187L21.3683 14.6181Z" fill="white"/>
</svg>
