<svg width="344" height="172" viewBox="0 0 344 172" fill="none" xmlns="http://www.w3.org/2000/svg">
<path d="M58.5309 43.0863C59.1942 43.1721 59.8633 43.1092 60.5291 43.1345C61.8755 43.2735 63.2103 43.517 64.5625 43.5791C67.5639 44.1136 70.5397 44.8271 73.4173 45.8364C75.1786 46.6659 77.0555 47.256 78.7278 48.2653C79.4802 48.7581 80.3159 49.1144 81.0543 49.6301C82.4642 50.6272 83.9327 51.5483 85.2453 52.6736C86.2213 53.4165 87.0999 54.273 88.0314 55.0682C90.0023 57.0852 91.899 59.1954 93.4706 61.5377C94.2585 62.6124 94.8632 63.8047 95.5892 64.9195C97.8439 69.1913 99.6012 73.7721 100.321 78.5563C100.722 81.7747 101.103 85.0495 100.595 88.2834C100.393 89.98 99.8503 91.635 99.1648 93.2008C97.768 95.9714 95.3409 98.245 92.422 99.3744C90.3488 100.398 87.986 100.719 85.69 100.657C83.4138 100.745 81.2515 99.9212 79.1882 99.0614C78.8879 98.9347 78.4935 98.719 78.5587 98.3357C78.6412 97.7865 79.0413 97.3582 79.2319 96.8466C80.6113 94.4676 81.6013 91.8736 82.3463 89.2314C82.5682 88.0071 83.0236 86.8319 83.1152 85.5831C83.3693 84.2886 83.4212 82.9687 83.5863 81.6611C83.5813 81.3022 83.586 80.9422 83.5921 80.5819L83.5983 80.2215C83.6152 79.2003 83.6201 78.1786 83.4221 77.1727C83.3338 76.6292 83.3808 76.0727 83.2661 75.5324C83.0343 74.4929 83.0368 73.4092 82.7431 72.3827C82.5585 71.8989 82.441 71.3961 82.3307 70.8915L82.2577 70.555C82.1233 69.9383 81.98 69.3245 81.7184 68.7451C81.3763 67.6908 80.9532 66.6663 80.5231 65.6445L80.2648 65.0315C80.1358 64.725 80.0076 64.4182 79.882 64.1104C79.0355 62.6467 78.3203 61.0955 77.2758 59.7536C72.8233 53.2768 65.9906 48.419 58.3412 46.4069C57.0979 45.9917 55.7919 45.8299 54.5165 45.5479C50.7652 44.9366 46.9256 45.2733 43.2147 45.9999C41.8065 46.1478 40.536 46.8204 39.1772 47.1514C39.8661 46.4878 40.8346 46.2647 41.6984 45.9141C44.1487 45.1736 46.5832 44.3024 49.1358 43.9583C50.1274 43.741 51.1397 43.656 52.1421 43.5007C53.5397 43.432 54.9141 43.0683 56.3199 43.1321C57.0583 43.1713 57.7934 42.9801 58.5309 43.0863ZM26.9056 63.3162L27.1897 63.4029C27.2844 63.4317 27.379 63.4604 27.4737 63.4885C28.4596 63.7827 29.5073 63.8358 30.4718 64.2052C31.2052 64.4782 31.9749 64.6432 32.7042 64.9293C33.5482 65.2586 34.4598 65.3698 35.3022 65.7049C35.8681 65.9304 36.5017 66.0285 36.9777 66.4347C36.6164 66.4445 36.2493 66.4412 35.9003 66.3366C34.1851 65.8307 32.4839 65.2611 30.7234 64.9228C29.4257 64.6334 28.1939 64.0695 26.8599 63.9371C25.8352 63.8431 24.9154 63.3234 23.8957 63.209C23.1969 63.1158 22.5006 62.9867 21.829 62.7701C20.6955 62.3729 19.4712 62.4277 18.3021 62.1964C17.3872 62.0296 16.5045 61.6725 15.564 61.6643C15.051 61.6651 14.5407 61.6131 14.0375 61.5153L13.8867 61.4845C13.4075 61.4892 12.9241 61.479 12.4393 61.4691L12.1484 61.4633C10.596 61.4337 9.03632 61.4376 7.56392 61.9683C7.52027 61.9889 7.47581 62.0098 7.43079 62.0311L7.34009 62.0745C6.62492 62.4198 5.8142 62.8929 5.88504 63.7859C5.87184 63.9347 5.87184 64.0851 5.88421 64.2346C5.90814 64.8803 6.16554 65.4899 6.50131 66.035C7.63817 67.9049 9.34262 69.3245 10.8936 70.8414C11.6262 71.3922 12.3366 71.9684 13.0197 72.578C15.0797 73.9707 17.0003 75.5749 19.1857 76.7804C20.3028 77.4734 21.367 78.2547 22.5468 78.8432C22.9098 79.041 23.2258 79.3098 23.5797 79.5215C25.0589 80.3102 26.4614 81.2312 27.9662 81.9749C29.919 83.1624 32.0162 84.0875 33.9929 85.2325C34.5233 85.5439 35.105 85.7548 35.6404 86.0563C36.9934 86.8197 38.452 87.3778 39.8017 88.1469C41.2785 88.8489 42.7709 89.5166 44.2658 90.177C44.9159 90.3723 45.4447 90.8577 46.1254 90.9591C46.3 91.0401 46.4649 91.1399 46.6277 91.2433L46.7251 91.3056C47.2317 91.5001 47.7564 91.648 48.2935 91.733C49.0962 89.3278 49.7884 86.7224 49.2274 84.1905C48.9642 83.2973 48.1582 82.7448 47.598 82.046C47.0535 81.3595 46.325 80.8569 45.7219 80.2276C44.7509 79.2265 43.3921 78.6225 42.5712 77.4849C43.4383 77.4922 44.2576 77.793 45.09 77.994L46.9326 78.4148C47.8538 78.6257 48.7744 78.8391 49.6927 79.0622C50.8402 79.4185 52.1322 79.2477 53.1362 78.5882C53.8829 78.0848 54.6155 77.5347 55.1798 76.8286C56.6722 75.4728 57.941 73.8955 59.1662 72.3043C59.7082 71.6643 60.0308 70.8307 60.7172 70.3232C60.8038 70.7188 60.5703 71.0784 60.4524 71.4404C59.945 72.7276 59.5779 74.063 59.2363 75.4001C58.9706 76.4347 58.6398 77.4547 58.4938 78.5155C58.2529 79.7994 58.0194 81.1977 58.6035 82.4277C59.1059 83.4272 60.0052 84.1407 60.7708 84.9334C61.8177 85.8863 62.8226 86.9014 63.9875 87.7146C64.5031 88.1624 65.1111 88.5171 65.5129 89.0818C64.3084 89.0197 63.1608 88.6062 61.977 88.4117C60.5349 88.2106 59.1216 87.8559 57.6787 87.6541C56.2704 87.2822 54.7334 87.8061 53.7162 88.8064C52.6346 89.8362 51.5728 90.9101 50.7379 92.1507C50.6101 92.3476 50.4269 92.7015 50.7165 92.8453C51.3204 93.2123 52.0068 93.4182 52.652 93.7026C53.6279 94.0753 54.5618 94.5436 55.5263 94.9441C57.8123 95.7621 60.0217 96.7821 62.3424 97.507L62.4051 97.5291C63.3844 97.9794 64.4099 98.3177 65.4081 98.7239C66.8626 99.3319 68.4037 99.694 69.8673 100.279C71.8704 100.901 73.8248 101.662 75.8246 102.295C78.5942 103.041 81.296 104.025 84.0986 104.655C86.5447 105.375 89.0527 105.853 91.5302 106.446C92.8263 106.582 94.0712 106.998 95.3665 107.124C95.4184 107.131 95.5216 107.146 95.5735 107.153C96.4884 107.47 97.4439 107.592 98.4023 107.701L98.7618 107.742C99.241 107.796 99.7199 107.852 100.194 107.934C100.711 108.042 101.236 108.08 101.762 108.111L102.157 108.133C102.552 108.156 102.946 108.184 103.338 108.243C104.597 108.439 105.875 108.356 107.143 108.36C107.82 108.368 108.476 108.195 109.136 108.072L109.208 108.06C109.814 108.006 110.384 107.765 110.898 107.451C111.625 107.012 111.929 106.036 111.627 105.254C111.298 103.994 110.476 103.019 109.607 102.08L109.448 101.91L109.29 101.74C108.919 101.344 108.55 100.949 108.216 100.536C107.989 100.316 107.757 100.102 107.523 99.8886L107.172 99.5689C106.588 99.0359 106.009 98.4975 105.497 97.8927C105.982 98.0916 106.39 98.4085 106.792 98.7356L106.977 98.887C107.162 99.0383 107.348 99.1882 107.541 99.3262C107.648 99.4183 107.755 99.5102 107.863 99.602L108.185 99.878C108.883 100.477 109.571 101.089 110.165 101.79C111.014 102.892 112.041 103.911 112.409 105.292C112.72 106.217 112.441 107.272 111.696 107.912C110.647 108.851 109.156 109.032 107.803 109.128C104.897 109.164 101.971 109.169 99.0996 108.673C97.542 108.431 95.9885 108.162 94.4408 107.865C94.3059 107.839 94.1702 107.816 94.0342 107.794L93.762 107.75C93.2627 107.67 92.7641 107.584 92.2917 107.4C91.8354 107.225 91.3157 107.082 90.8405 107.268C90.678 107.618 90.857 108.013 90.8982 108.375C91.1499 109.576 90.9354 110.793 90.7852 111.991C90.1287 114.12 88.5088 115.684 86.886 117.152L86.6913 117.328C86.4643 117.532 86.238 117.736 86.0151 117.939C84.299 119.365 82.5352 120.748 80.6063 121.884C79.6988 122.404 78.7905 122.921 77.8913 123.455C73.956 125.345 69.8087 126.91 65.456 127.502C64.6401 127.64 63.8398 127.908 63.0033 127.881C62.6708 127.872 62.3419 127.906 62.0136 127.947L61.6852 127.988C61.4116 128.022 61.1376 128.051 60.8616 128.053C57.767 128.154 54.6559 128.149 51.5803 127.781C49.7603 127.389 47.89 127.185 46.1237 126.585C43.8558 126.101 41.6901 125.239 39.5773 124.305C38.5551 123.894 37.5519 123.43 36.6213 122.84C33.3485 121.101 30.329 118.9 27.6156 116.389C26.9341 115.701 26.2766 114.991 25.5952 114.303C24.5532 113.208 23.6498 111.997 22.6681 110.851C22.3781 110.375 22.0802 109.903 21.7807 109.431L21.4809 108.959L21.1814 108.487C20.2846 107.07 19.4111 105.64 18.7311 104.106C18.0084 102.563 17.3121 101.005 16.8353 99.3679C16.7026 98.9297 16.558 98.4936 16.4111 98.0576L16.2218 97.497C15.7598 96.1259 15.3171 94.7476 15.1968 93.3014C15.1245 92.8513 15.0356 92.4039 14.9443 91.9569L14.8346 91.4205C14.6892 90.7051 14.5523 89.9883 14.4824 89.2608C14.4686 89.0368 14.4381 88.8106 14.405 88.5837L14.38 88.4134C14.2798 87.7318 14.1894 87.047 14.4939 86.3979C14.9741 87.9769 15.0772 89.6433 15.5631 91.2231C15.8271 92.1033 16.0078 93.0121 16.3923 93.8522C16.495 94.1024 16.5956 94.3536 16.6959 94.6049L16.8964 95.1076C17.2649 96.0287 17.6437 96.9454 18.1173 97.8208C18.5191 98.8342 19.1148 99.7577 19.7583 100.635C20.5726 101.872 21.4512 103.077 22.4824 104.148C22.5825 104.248 22.6824 104.349 22.7822 104.45L23.0819 104.753C24.4806 106.168 25.893 107.59 27.5909 108.652C28.3367 109.166 29.0313 109.759 29.839 110.18C30.9008 110.738 31.8833 111.454 33.0235 111.855C33.4488 112.01 33.866 112.187 34.2817 112.368L34.6378 112.523C35.4687 112.886 36.3014 113.242 37.1898 113.446C39.0625 113.994 40.9567 114.532 42.9029 114.739C43.0753 114.756 43.2494 114.77 43.4235 114.782C46.5214 115.245 49.705 115.294 52.7988 114.786C53.3606 114.781 53.9035 114.657 54.4442 114.52L54.8496 114.417C55.0749 114.361 55.3006 114.306 55.5279 114.263C58.6522 113.717 61.562 112.407 64.4124 111.076C65.4007 110.436 66.4724 109.933 67.4451 109.271C68.4508 108.491 69.5736 107.863 70.5075 106.993C71.0091 106.517 71.5874 106.123 72.0552 105.612L72.2083 105.479L72.5156 105.213C72.925 104.859 73.3306 104.5 73.6978 104.103C73.8793 103.882 74.0946 103.639 74.1012 103.339C74.0533 102.973 73.7233 102.731 73.4247 102.557C72.716 102.17 71.9603 101.868 71.1757 101.674C70.5091 101.515 69.9193 101.151 69.265 100.956C68.7313 100.793 68.209 100.6 67.6983 100.376C66.9253 100.036 66.0756 99.913 65.3067 99.56C64.5823 99.2339 63.8448 98.9339 63.0668 98.7599L63.0057 98.7362C61.9357 98.1281 60.6924 97.9295 59.6092 97.3435C56.9502 96.3841 54.3267 95.3274 51.7428 94.1848C51.5784 94.1217 51.4168 94.0458 51.2555 93.9671L51.0942 93.888C50.6909 93.6898 50.2847 93.496 49.837 93.4656C48.9295 94.0084 48.4729 95.0315 47.7802 95.7974L47.7077 95.8757C47.5782 95.9942 47.4247 96.0833 47.2746 96.174C47.1764 95.0732 47.9387 94.157 48.0121 93.0864C48.0757 92.6614 47.6029 92.4808 47.3158 92.2806C46.1872 91.55 44.8029 91.38 43.6644 90.6681C41.3816 89.5305 39.0328 88.531 36.7525 87.3868C35.5695 86.6619 34.2841 86.1242 33.0458 85.5006C31.1425 84.4365 29.1641 83.5048 27.3005 82.3713C26.1182 81.8875 25.1241 81.0702 23.9872 80.5014C22.758 79.9481 21.683 79.1259 20.5231 78.4517C18.9803 77.4522 17.3567 76.5687 15.9039 75.4376C15.0129 74.8639 14.1813 74.2085 13.3373 73.5694C11.9934 72.6034 10.6519 71.6145 9.5002 70.4229C9.00767 69.9293 8.38809 69.5681 7.96817 69.0025C7.76058 68.719 7.51539 68.4667 7.2673 68.2173L7.10185 68.0512C6.74409 67.6909 6.39633 67.3236 6.16306 66.8646C5.49563 65.8977 4.95608 64.7568 5.06993 63.5579C5.22256 62.3688 6.31651 61.5385 7.42779 61.2614C8.68427 60.8095 10.0323 60.731 11.3573 60.7711C13.5386 60.7212 15.7281 60.919 17.8566 61.4028C18.8194 61.6284 19.8119 61.7052 20.7673 61.9667C21.518 62.1768 22.3125 62.1604 23.0583 62.3933C23.6589 62.5788 24.2661 62.7382 24.8782 62.8796C25.5745 62.9228 26.2422 63.1144 26.9056 63.3162Z" fill="#E00501"/>
<g clip-path="url(#clip0_1586_11549)">
<path d="M282.987 72.9275C285.257 72.9601 287.527 72.8934 289.796 72.9617C289.366 73.5005 288.845 73.9416 288.315 74.3711L288.07 74.5688C287.865 74.7334 287.661 74.8982 287.462 75.0682C283.85 78.1233 280.243 81.1845 276.593 84.193C277.353 86.3088 278.375 88.316 279.399 90.3077C281.25 93.5909 283.475 96.8043 286.637 98.8937C290.753 101.78 296.061 102.369 300.86 101.287C297.161 104.422 292.124 105.814 287.366 105.316C284.111 104.985 280.98 103.51 278.642 101.168C275.125 97.7372 273.153 93.06 271.478 88.4852C270.152 89.5253 268.875 90.6259 267.563 91.6815C267.229 91.9345 266.999 92.3009 266.908 92.7154C266.304 95.0268 265.692 97.3383 265.02 99.6311C262.932 99.6979 260.845 99.7599 258.757 99.7056C260.581 92.6005 262.607 85.5513 264.521 78.471C264.698 77.4852 265.579 76.9497 266.336 76.4467C268.237 75.1986 270.092 73.8217 272.201 72.9539C271.445 76.4917 270.199 79.9116 269.46 83.454C271.303 81.9207 273.126 80.3608 274.947 78.7967L277.131 76.9192C278.587 75.6682 280.045 74.4202 281.514 73.1868C281.852 72.9159 282.282 72.9246 282.696 72.929L282.814 72.9299C282.872 72.93 282.93 72.9295 282.987 72.9275ZM210.598 78.2412C207.8 84.6462 210.833 92.97 216.937 96.0964C220.145 97.6876 224.072 97.2591 227.008 95.2426C226.331 96.2144 225.33 96.8602 224.384 97.5246C220.634 100.086 215.785 100.941 211.432 99.6994C208.554 98.8984 206.139 96.5838 205.132 93.7213C203.22 88.1406 205.414 81.1239 210.598 78.2412ZM273.79 66.8144C270.801 67.1202 267.847 68.1851 265.566 70.228C263.369 72.1374 261.858 74.7251 260.734 77.4076C259.495 80.4027 258.616 83.5263 257.769 86.6573L257.566 87.4088C257.33 88.2856 257.095 89.1622 256.852 90.036C255.964 93.2385 255.11 96.4503 254.219 99.6513C252.445 99.7662 250.656 99.7739 248.883 99.6513C246.35 94.2367 243.864 88.791 241.21 83.4385C239.669 88.7212 238.302 94.0597 236.785 99.3501C236.715 99.7599 236.22 99.7041 235.914 99.7305C234.103 99.7149 232.291 99.7367 230.48 99.7041C232.805 90.7718 235.384 81.9063 237.789 72.9943C239.335 72.8701 240.89 72.9648 242.441 72.9244C242.808 72.9477 243.326 72.853 243.487 73.297C246.074 78.5144 248.455 83.8406 251.064 89.0441C252.381 83.8033 253.629 78.4198 256.395 73.7425C258.605 69.8849 262.247 66.6436 266.665 65.9171C269.044 65.5678 271.61 65.6951 273.79 66.8144ZM299.566 72.9111L299.658 72.9132C299.689 72.914 299.719 72.9151 299.75 72.9161L299.841 72.9193C299.947 72.923 300.05 72.9261 300.15 72.9244C301.81 72.9586 303.471 72.8949 305.131 72.9617C306.585 81.5245 308.026 90.0903 309.46 98.6562C309.508 99.0086 309.534 99.3641 309.566 99.7211C307.469 99.687 305.367 99.7972 303.272 99.6513C303.008 97.8723 302.736 96.0933 302.478 94.3143C296.339 94.305 290.199 94.336 284.06 94.2926C288.738 87.2946 293.589 80.4114 298.351 73.4693C298.59 72.9571 299.076 72.9033 299.566 72.9111ZM222.63 72.5907C225.971 72.9756 229.215 75.0201 230.641 78.1993C233.138 83.8545 231.042 91.4844 225.596 94.4851C226.029 93.3099 226.408 92.0929 226.449 90.8277C226.67 86.1458 224.884 81.2885 221.395 78.1807C219.117 76.1316 215.863 75.2638 212.906 76.0089C211.623 76.2744 210.451 76.8798 209.24 77.361C212.557 73.6478 217.797 71.9558 222.63 72.5907ZM300.291 79.4738C298.163 82.7182 296.006 85.9456 293.891 89.1962C296.497 89.235 299.103 89.1869 301.709 89.2179C301.255 85.9673 300.756 82.7229 300.291 79.4738ZM182.437 78.3018C180.21 83.6263 181.925 90.14 185.965 94.0597C188.298 96.3386 191.709 97.5835 194.912 96.8943C196.291 96.6646 197.536 95.9986 198.765 95.3575C195.07 99.3734 189.168 101.1 183.93 99.8577C181.149 99.2492 178.702 97.2839 177.478 94.6605C175.485 90.3077 176.362 84.8977 179.2 81.1441C180.096 80.014 181.114 78.9056 182.437 78.3018ZM157.363 73.002C157.716 74.3029 158.059 75.6071 158.399 76.9117L158.909 78.8688C159.42 80.8255 159.937 82.7803 160.492 84.7239C164.064 80.9144 167.645 77.1111 171.234 73.3187C171.599 72.8701 172.209 72.9291 172.721 72.9229C174.422 72.9555 176.123 72.9027 177.823 72.943C175.476 81.8737 173.008 90.7734 170.551 99.673C169.354 99.7342 168.155 99.7326 166.956 99.7243L166.057 99.7177C165.458 99.7136 164.859 99.7114 164.26 99.718C165.647 94.291 167.249 88.9199 168.677 83.5037C164.836 87.4048 161.143 91.4611 157.286 95.3451C156.213 91.2422 155.146 87.1378 154.09 83.0318C152.307 88.3036 150.03 93.7415 145.717 97.3802C143.454 99.2896 140.297 100.316 137.417 99.4184C139.64 97.8583 141.638 95.9551 143.099 93.6204C145.951 89.2438 147.625 84.2897 149.135 79.2901L149.288 78.7816L149.44 78.2728C149.516 78.0184 149.592 77.764 149.667 77.5096L149.818 77.0009C149.843 76.9162 149.869 76.8314 149.894 76.7467L150.045 76.2384L150.196 75.7306C150.474 74.8 150.754 73.8723 151.043 72.9508C153.149 72.943 155.261 72.8608 157.363 73.002ZM197.52 73.4072C200.428 74.5684 202.65 77.2834 203.271 80.4083C204.344 85.7003 202.205 91.8429 197.473 94.5596C198.417 92.2885 198.56 89.7581 198.138 87.3473C197.325 82.7105 194.605 77.9991 190.099 76.3163C186.984 75.09 183.533 76.0198 180.746 77.6669C184.829 73.0284 191.788 71.1408 197.52 73.4072ZM334.518 72.9353C333.191 78.2164 331.667 83.4478 330.261 88.7072C329.482 91.4657 328.788 94.3904 326.936 96.6366C324.923 99.1545 321.657 100.384 318.525 100.246C315.611 100.309 312.544 98.9325 311.073 96.2718C310.874 95.8992 310.599 95.2985 311.091 95.033C312.611 93.9588 314.059 92.7728 315.646 91.7964C316.433 93.5738 318.301 95.092 320.293 94.4944C322.249 93.9619 323.079 91.8429 323.515 90.0236C325.106 84.3296 326.604 78.6076 328.243 72.9291C330.334 72.9399 332.425 72.9151 334.518 72.9353ZM344.973 72.943C342.647 81.8598 340.197 90.747 337.768 99.6373C335.65 99.7925 333.52 99.7103 331.399 99.701C333.779 90.8153 336.187 81.9296 338.695 73.0828C340.736 72.7381 342.89 73.0067 344.973 72.943Z" fill="#E00501"/>
</g>
<defs>
<clipPath id="clip0_1586_11549">
<rect width="205.456" height="43.2539" fill="white" transform="translate(138.544 64.2307)"/>
</clipPath>
</defs>
</svg>
