<svg width="127" height="62" viewBox="0 0 127 62" fill="none" xmlns="http://www.w3.org/2000/svg">
<path d="M21.4024 14.1787C21.6478 14.2104 21.8953 14.1871 22.1415 14.1965C22.6396 14.2479 23.1334 14.338 23.6335 14.361C24.7438 14.5587 25.8445 14.8226 26.909 15.1959C27.5605 15.5028 28.2548 15.7211 28.8734 16.0944C29.1517 16.2767 29.4609 16.4085 29.734 16.5993C30.2555 16.9681 30.7988 17.3088 31.2843 17.7251C31.6453 17.9999 31.9703 18.3167 32.3149 18.6109C33.0439 19.357 33.7455 20.1375 34.3269 21.004C34.6183 21.4015 34.842 21.8426 35.1106 22.2549C35.9446 23.8351 36.5946 25.5296 36.8608 27.2993C37.0091 28.4898 37.1501 29.7012 36.9624 30.8974C36.8876 31.525 36.6868 32.1372 36.4332 32.7164C35.9165 33.7413 35.0187 34.5823 33.939 35.0001C33.1721 35.3789 32.2981 35.4974 31.4488 35.4744C30.6068 35.5071 29.8069 35.2024 29.0437 34.8843C28.9326 34.8375 28.7867 34.7577 28.8108 34.6159C28.8414 34.4127 28.9894 34.2543 29.0599 34.0651C29.5701 33.185 29.9363 32.2255 30.2119 31.2481C30.294 30.7953 30.4625 30.3605 30.4963 29.8986C30.5903 29.4197 30.6095 28.9315 30.6706 28.4478C30.6687 28.315 30.6705 28.1819 30.6727 28.0486L30.675 27.9153C30.6813 27.5375 30.6831 27.1596 30.6098 26.7875C30.5772 26.5865 30.5946 26.3806 30.5522 26.1808C30.4664 25.7962 30.4673 25.3954 30.3587 25.0157C30.2904 24.8367 30.2469 24.6507 30.2062 24.464L30.1791 24.3396C30.1294 24.1114 30.0764 23.8844 29.9797 23.6701C29.8531 23.2801 29.6966 22.9011 29.5375 22.5231L29.4419 22.2964C29.3942 22.183 29.3468 22.0695 29.3003 21.9556C28.9872 21.4142 28.7226 20.8404 28.3363 20.344C26.6893 17.9482 24.1618 16.1513 21.3322 15.407C20.8723 15.2534 20.3892 15.1935 19.9174 15.0892C18.5298 14.8631 17.1095 14.9877 15.7368 15.2564C15.2159 15.3111 14.7459 15.5599 14.2433 15.6824C14.4981 15.4369 14.8564 15.3544 15.1759 15.2247C16.0823 14.9508 16.9829 14.6285 17.9271 14.5012C18.2939 14.4208 18.6683 14.3894 19.0391 14.3319C19.5561 14.3065 20.0645 14.172 20.5845 14.1956C20.8577 14.2101 21.1296 14.1394 21.4024 14.1787ZM9.70393 21.6619L9.80902 21.6939C9.84404 21.7046 9.87905 21.7152 9.91408 21.7256C10.2788 21.8344 10.6663 21.8541 11.0231 21.9907C11.2944 22.0917 11.5791 22.1528 11.8489 22.2586C12.1611 22.3804 12.4983 22.4215 12.8099 22.5455C13.0192 22.6289 13.2536 22.6652 13.4297 22.8154C13.296 22.8191 13.1602 22.8178 13.0311 22.7791C12.3967 22.592 11.7674 22.3813 11.1162 22.2561C10.6361 22.1491 10.1805 21.9405 9.68703 21.8916C9.308 21.8568 8.96773 21.6645 8.59053 21.6222C8.33205 21.5877 8.07448 21.54 7.82607 21.4599C7.40675 21.3129 6.95387 21.3332 6.52144 21.2476C6.183 21.186 5.85646 21.0539 5.50856 21.0508C5.3188 21.0511 5.13005 21.0319 4.9439 20.9957L4.88814 20.9843C4.71086 20.986 4.53204 20.9823 4.35274 20.9786L4.24511 20.9765C3.67087 20.9655 3.09393 20.9669 2.54928 21.1633C2.53313 21.1709 2.51669 21.1786 2.50004 21.1865L2.46648 21.2026C2.20193 21.3303 1.90204 21.5053 1.92825 21.8356C1.92336 21.8907 1.92336 21.9463 1.92794 22.0016C1.93679 22.2404 2.03201 22.466 2.15621 22.6676C2.57674 23.3593 3.20724 23.8844 3.78097 24.4455C4.05196 24.6492 4.31472 24.8624 4.5674 25.0879C5.32943 25.603 6.03987 26.1965 6.84828 26.6424C7.26149 26.8988 7.65517 27.1878 8.09157 27.4054C8.22585 27.4786 8.34273 27.578 8.47365 27.6563C9.02083 27.9481 9.53963 28.2888 10.0963 28.5639C10.8186 29.0031 11.5944 29.3454 12.3256 29.7689C12.5218 29.8841 12.7369 29.9621 12.935 30.0736C13.4355 30.356 13.975 30.5625 14.4743 30.847C15.0206 31.1066 15.5726 31.3536 16.1256 31.5979C16.3661 31.6701 16.5617 31.8497 16.8135 31.8872C16.8781 31.9172 16.9391 31.9541 16.9993 31.9923L17.0353 32.0154C17.2227 32.0873 17.4168 32.1421 17.6155 32.1735C17.9124 31.2838 18.1685 30.32 17.9609 29.3835C17.8636 29.053 17.5654 28.8487 17.3582 28.5902C17.1568 28.3362 16.8873 28.1503 16.6643 27.9175C16.3051 27.5472 15.8024 27.3238 15.4988 26.903C15.8195 26.9057 16.1226 27.017 16.4305 27.0913L17.1121 27.247C17.4529 27.325 17.7934 27.4039 18.1331 27.4864C18.5576 27.6183 19.0355 27.5551 19.4069 27.3111C19.683 27.1249 19.954 26.9214 20.1628 26.6602C20.7148 26.1587 21.1842 25.5752 21.6374 24.9866C21.8379 24.7499 21.9572 24.4416 22.2111 24.2538C22.2432 24.4001 22.1568 24.5332 22.1132 24.6671C21.9255 25.1432 21.7897 25.6372 21.6633 26.1318C21.5651 26.5145 21.4427 26.8918 21.3887 27.2842C21.2996 27.7591 21.2132 28.2764 21.4293 28.7314C21.6151 29.1011 21.9478 29.365 22.231 29.6583C22.6182 30.0108 22.9899 30.3862 23.4208 30.687C23.6116 30.8527 23.8365 30.9839 23.9851 31.1928C23.5395 31.1698 23.115 31.0168 22.6771 30.9449C22.1437 30.8705 21.6209 30.7393 21.0872 30.6647C20.5662 30.5271 19.9977 30.7209 19.6214 31.0909C19.2213 31.4718 18.8286 31.8691 18.5197 32.328C18.4724 32.4008 18.4047 32.5317 18.5118 32.5849C18.7352 32.7207 18.9891 32.7969 19.2277 32.9021C19.5887 33.0399 19.9342 33.2131 20.291 33.3613C21.1366 33.6639 21.9539 34.0412 22.8123 34.3093L22.8355 34.3175C23.1978 34.4841 23.5771 34.6092 23.9463 34.7595C24.4844 34.9844 25.0544 35.1183 25.5958 35.3348C26.3368 35.5648 27.0597 35.8463 27.7995 36.0803C28.824 36.3566 29.8234 36.7206 30.8601 36.9534C31.7649 37.2197 32.6927 37.3965 33.6091 37.616C34.0885 37.6662 34.5491 37.8201 35.0282 37.8666C35.0474 37.8694 35.0856 37.8748 35.1048 37.8775C35.4432 37.9949 35.7966 38.0399 36.1512 38.0802L36.2841 38.0952C36.4614 38.1152 36.6385 38.1362 36.8138 38.1665C37.0051 38.2064 37.1993 38.2205 37.394 38.2318L37.5401 38.2401C37.6861 38.2486 37.832 38.2589 37.9768 38.2805C38.4425 38.3531 38.9152 38.3225 39.3846 38.324C39.6348 38.3271 39.8774 38.263 40.1216 38.2173L40.1481 38.2131C40.3724 38.1931 40.5833 38.104 40.7734 37.9879C41.0423 37.8252 41.1549 37.4643 41.0432 37.1749C40.9213 36.709 40.6172 36.3482 40.2958 36.0009L40.2372 35.9379L40.1784 35.875C40.0414 35.7285 39.9048 35.5824 39.7813 35.4297C39.6973 35.3485 39.6114 35.2692 39.525 35.1903L39.3953 35.0721C39.1792 34.8749 38.9649 34.6757 38.7757 34.452C38.955 34.5256 39.106 34.6428 39.2545 34.7638L39.3229 34.8198C39.3913 34.8758 39.4601 34.9312 39.5317 34.9823C39.5712 35.0163 39.6109 35.0503 39.6507 35.0843L39.7699 35.1864C40.0279 35.408 40.2826 35.6344 40.5024 35.8937C40.8164 36.3013 41.1961 36.6782 41.3325 37.1892C41.4472 37.5314 41.3441 37.9217 41.0685 38.1584C40.6806 38.5054 40.1292 38.5725 39.6284 38.6082C38.5536 38.6215 37.4714 38.623 36.4091 38.4398C35.8329 38.35 35.2583 38.2506 34.6858 38.1408C34.6359 38.1313 34.5857 38.1228 34.5354 38.1146L34.4347 38.0983C34.25 38.0686 34.0656 38.0368 33.8908 37.9688C33.722 37.9041 33.5298 37.8512 33.354 37.9198C33.2939 38.0495 33.3601 38.1956 33.3753 38.3295C33.4684 38.7739 33.3891 39.224 33.3335 39.6672C33.0907 40.4548 32.4915 41.033 31.8912 41.5762L31.8192 41.6412C31.7352 41.7169 31.6515 41.7921 31.569 41.8671C30.9342 42.3947 30.2818 42.9065 29.5683 43.3267C29.2326 43.519 28.8966 43.7103 28.564 43.9077C27.1083 44.6067 25.5742 45.1856 23.964 45.4048C23.6622 45.4559 23.3662 45.5547 23.0568 45.5451C22.9338 45.5414 22.8121 45.5542 22.6907 45.5693L22.5692 45.5845C22.468 45.597 22.3666 45.6077 22.2645 45.6086C21.1198 45.646 19.969 45.6442 18.8313 45.5079C18.1581 45.3628 17.4663 45.2875 16.8129 45.0656C15.9739 44.8863 15.1729 44.5677 14.3913 44.2221C14.0132 44.0701 13.6421 43.8984 13.2979 43.6804C12.0872 43.0368 10.9703 42.2227 9.96657 41.294C9.71449 41.0394 9.47127 40.7767 9.21919 40.5222C8.83376 40.1174 8.49959 39.6693 8.13643 39.2455C8.02918 39.0693 7.91899 38.8945 7.8082 38.7201L7.69728 38.5456L7.58648 38.371C7.25478 37.8469 6.93164 37.3177 6.68013 36.7502C6.4128 36.1797 6.15523 35.6032 5.97884 34.9977C5.92977 34.8356 5.87627 34.6743 5.82193 34.513L5.75191 34.3056C5.58101 33.7984 5.41724 33.2886 5.37276 32.7536C5.34601 32.5872 5.31312 32.4217 5.27935 32.2563L5.23876 32.0579C5.18498 31.7932 5.13436 31.5281 5.10848 31.259C5.10338 31.1761 5.09208 31.0925 5.07986 31.0085L5.07061 30.9455C5.03355 30.6934 5.00009 30.4401 5.11275 30.2C5.29036 30.7841 5.32851 31.4005 5.50826 31.9849C5.60592 32.3104 5.67275 32.6466 5.81496 32.9574C5.85295 33.05 5.89018 33.1429 5.92726 33.2358L6.00143 33.4218C6.13775 33.7625 6.27789 34.1016 6.45308 34.4254C6.6017 34.8003 6.82204 35.1419 7.06008 35.4663C7.36128 35.924 7.6863 36.3699 8.06776 36.7659C8.10477 36.803 8.14172 36.8403 8.17867 36.8776L8.2895 36.9897C8.80692 37.513 9.32936 38.0391 9.95741 38.432C10.2333 38.6221 10.4902 38.8413 10.789 38.9973C11.1818 39.2035 11.5452 39.4686 11.967 39.6167C12.1243 39.674 12.2786 39.7395 12.4324 39.8064L12.5641 39.8638C12.8715 39.998 13.1795 40.1299 13.5081 40.2053C14.2009 40.4079 14.9016 40.6071 15.6215 40.6836C15.6852 40.6899 15.7496 40.6951 15.814 40.6996C16.96 40.8707 18.1376 40.8889 19.282 40.7008C19.4899 40.699 19.6907 40.6531 19.8907 40.6026L20.0407 40.5646C20.124 40.5436 20.2075 40.5236 20.2916 40.5073C21.4473 40.3057 22.5236 39.8208 23.578 39.3286C23.9436 39.0919 24.34 38.9057 24.6998 38.6608C25.0718 38.3724 25.4872 38.1399 25.8326 37.8183C26.0182 37.6423 26.2321 37.4966 26.4051 37.3074L26.4618 37.2582L26.5754 37.16C26.7269 37.029 26.8769 36.8962 27.0127 36.7493C27.0799 36.6674 27.1595 36.5776 27.162 36.4666C27.1443 36.3312 27.0222 36.2417 26.9117 36.1773C26.6496 36.0343 26.37 35.9225 26.0798 35.8508C25.8332 35.7919 25.615 35.6573 25.373 35.5851C25.1756 35.5249 24.9824 35.4533 24.7935 35.3707C24.5076 35.2447 24.1932 35.1993 23.9088 35.0687C23.6409 34.9481 23.368 34.8372 23.0803 34.7728L23.0577 34.764C22.6619 34.5391 22.202 34.4656 21.8013 34.2489C20.8177 33.894 19.8472 33.5031 18.8914 33.0804C18.8306 33.0571 18.7708 33.029 18.7112 32.9999L18.6515 32.9706C18.5023 32.8973 18.3521 32.8256 18.1865 32.8144C17.8508 33.0152 17.6819 33.3936 17.4256 33.677L17.3988 33.7059C17.3509 33.7498 17.2941 33.7827 17.2386 33.8163C17.2023 33.409 17.4843 33.0702 17.5114 32.6741C17.5349 32.5169 17.3601 32.4501 17.2538 32.376C16.8364 32.1058 16.3243 32.0429 15.9031 31.7796C15.0587 31.3588 14.1899 30.989 13.3464 30.5658C12.9088 30.2976 12.4333 30.0987 11.9752 29.8681C11.2712 29.4745 10.5394 29.1298 9.84999 28.7105C9.41267 28.5315 9.04494 28.2292 8.6244 28.0188C8.16969 27.8142 7.77205 27.51 7.34297 27.2606C6.7723 26.8909 6.17171 26.5641 5.6343 26.1457C5.30471 25.9335 4.99709 25.691 4.6849 25.4546C4.18777 25.0973 3.69155 24.7315 3.26552 24.2907C3.08334 24.1081 2.85415 23.9745 2.69881 23.7653C2.62202 23.6604 2.53133 23.5671 2.43956 23.4748L2.37836 23.4134C2.24602 23.2801 2.11738 23.1443 2.03109 22.9744C1.7842 22.6168 1.58462 22.1948 1.62673 21.7513C1.68319 21.3114 2.08785 21.0043 2.49892 20.9018C2.96371 20.7346 3.46236 20.7056 3.95247 20.7204C4.75936 20.702 5.56929 20.7751 6.35665 20.9541C6.71279 21.0375 7.07991 21.0659 7.43331 21.1627C7.71101 21.2404 8.0049 21.2343 8.28078 21.3205C8.50294 21.3891 8.72755 21.4481 8.95399 21.5004C9.21153 21.5164 9.45854 21.5872 9.70393 21.6619Z" fill="#E00501"/>
<g clip-path="url(#clip0_1586_1185)">
<path d="M104.431 25.2168C105.27 25.2289 106.11 25.2042 106.949 25.2294C106.79 25.4288 106.598 25.5919 106.401 25.7508L106.311 25.8239C106.235 25.8848 106.16 25.9458 106.086 26.0087C104.75 27.1388 103.416 28.2711 102.066 29.384C102.346 30.1667 102.725 30.9091 103.103 31.6459C103.788 32.8604 104.611 34.049 105.781 34.8219C107.303 35.8894 109.267 36.1076 111.042 35.7074C109.674 36.8668 107.811 37.3818 106.05 37.1975C104.846 37.0752 103.688 36.5297 102.823 35.6632C101.522 34.3941 100.793 32.664 100.173 30.9717C99.6829 31.3565 99.2104 31.7636 98.725 32.1541C98.6014 32.2477 98.5166 32.3832 98.4829 32.5365C98.2593 33.3915 98.0329 34.2466 97.7846 35.0947C97.0121 35.1194 96.2401 35.1424 95.4677 35.1223C96.1424 32.494 96.8918 29.8864 97.5997 27.2674C97.6655 26.9027 97.9913 26.7046 98.2711 26.5186C98.9745 26.0569 99.6604 25.5476 100.441 25.2266C100.161 26.5352 99.7003 27.8003 99.4267 29.1107C100.109 28.5435 100.783 27.9664 101.456 27.3879L102.264 26.6934C102.803 26.2306 103.342 25.769 103.886 25.3127C104.011 25.2125 104.17 25.2157 104.323 25.2174L104.367 25.2177C104.388 25.2177 104.41 25.2175 104.431 25.2168ZM77.6532 27.1824C76.6184 29.5517 77.7403 32.6307 79.9982 33.7872C81.1848 34.3758 82.6376 34.2173 83.7236 33.4713C83.473 33.8308 83.1028 34.0697 82.7528 34.3155C81.3657 35.2629 79.5718 35.5793 77.9617 35.12C76.897 34.8237 76.0038 33.9675 75.6313 32.9086C74.924 30.8443 75.7358 28.2487 77.6532 27.1824ZM101.028 22.9555C99.9228 23.0686 98.8301 23.4625 97.9862 24.2182C97.1739 24.9245 96.6149 25.8818 96.1991 26.874C95.7406 27.982 95.4154 29.1374 95.1023 30.2956L95.0273 30.5736C94.9399 30.8979 94.8528 31.2222 94.7631 31.5454C94.4345 32.73 94.1187 33.9181 93.789 35.1022C93.1328 35.1447 92.471 35.1475 91.8153 35.1022C90.8782 33.0992 89.9585 31.0849 88.9771 29.1049C88.4068 31.059 87.9012 33.0338 87.34 34.9908C87.3141 35.1424 87.131 35.1217 87.018 35.1314C86.3478 35.1257 85.6776 35.1337 85.0079 35.1217C85.868 31.8176 86.822 28.5382 87.7113 25.2415C88.2832 25.1956 88.8585 25.2306 89.4321 25.2157C89.5681 25.2243 89.7597 25.1893 89.8192 25.3535C90.776 27.2835 91.6569 29.2536 92.6221 31.1785C93.1092 29.2399 93.571 27.2484 94.594 25.5183C95.4115 24.0913 96.7587 22.8923 98.393 22.6236C99.2728 22.4944 100.222 22.5415 101.028 22.9555ZM110.563 25.2107L110.597 25.2115C110.609 25.2118 110.62 25.2122 110.631 25.2126L110.665 25.2138C110.704 25.2152 110.743 25.2163 110.779 25.2157C111.393 25.2283 112.008 25.2048 112.622 25.2294C113.16 28.3969 113.693 31.5655 114.223 34.7341C114.241 34.8644 114.251 34.9959 114.262 35.128C113.487 35.1154 112.709 35.1561 111.934 35.1022C111.837 34.4441 111.736 33.786 111.64 33.128C109.37 33.1245 107.098 33.136 104.827 33.1199C106.558 30.5313 108.352 27.9852 110.114 25.4172C110.202 25.2278 110.382 25.2079 110.563 25.2107ZM82.1039 25.0922C83.3399 25.2346 84.5399 25.9909 85.0674 27.1669C85.991 29.2588 85.2158 32.0811 83.2011 33.1911C83.3612 32.7564 83.5017 32.3062 83.5168 31.8382C83.5983 30.1064 82.9376 28.3096 81.6471 27.16C80.8044 26.402 79.601 26.081 78.5072 26.3567C78.0325 26.4549 77.5987 26.6788 77.151 26.8568C78.378 25.4833 80.3162 24.8573 82.1039 25.0922ZM110.831 27.6383C110.044 28.8385 109.247 30.0323 108.464 31.2347C109.428 31.2491 110.392 31.2313 111.356 31.2428C111.188 30.0403 111.003 28.8402 110.831 27.6383ZM67.2362 27.2048C66.4126 29.1744 67.0468 31.5839 68.5412 33.0338C69.4042 33.8768 70.666 34.3373 71.8509 34.0823C72.361 33.9973 72.8217 33.751 73.2762 33.5138C71.9093 34.9994 69.7261 35.6379 67.7884 35.1785C66.7597 34.9534 65.8547 34.2265 65.4019 33.256C64.6648 31.6459 64.9889 29.6447 66.0389 28.2562C66.3704 27.8382 66.7468 27.4282 67.2362 27.2048ZM57.9613 25.2444C58.092 25.7256 58.2186 26.208 58.3444 26.6906L58.5332 27.4145C58.7222 28.1383 58.9135 28.8614 59.1186 29.5804C60.44 28.1712 61.7647 26.7644 63.0923 25.3615C63.2271 25.1956 63.4529 25.2174 63.6423 25.2151C64.2715 25.2272 64.9007 25.2076 65.5294 25.2226C64.6614 28.5261 63.7485 31.8181 62.8394 35.1102C62.3967 35.1328 61.9533 35.1322 61.5099 35.1292L61.1773 35.1267C60.9556 35.1252 60.7339 35.1244 60.5124 35.1269C61.0254 33.1193 61.6181 31.1325 62.1462 29.129C60.7254 30.5721 59.3596 32.0725 57.9326 33.5092C57.536 31.9916 57.141 30.4733 56.7506 28.9545C56.091 30.9045 55.2488 32.9161 53.6533 34.2621C52.8162 34.9684 51.6482 35.3479 50.583 35.016C51.4055 34.4389 52.1443 33.7349 52.6847 32.8713C53.7399 31.2523 54.3591 29.4198 54.9177 27.5704L54.9743 27.3823L55.0305 27.1941C55.0586 27.1 55.0866 27.0059 55.1145 26.9118L55.1704 26.7236C55.1797 26.6923 55.189 26.6609 55.1983 26.6296L55.2541 26.4415L55.31 26.2537C55.4127 25.9095 55.5164 25.5663 55.6236 25.2254C56.4022 25.2226 57.1837 25.1921 57.9613 25.2444ZM72.8155 25.3943C73.8914 25.8238 74.7133 26.8281 74.9431 27.984C75.3397 29.9416 74.5487 32.2138 72.7981 33.2187C73.1475 32.3786 73.2003 31.4426 73.0441 30.5508C72.7436 28.8356 71.7374 27.0928 70.0705 26.4704C68.9182 26.0167 67.6418 26.3607 66.6109 26.9699C68.121 25.2541 70.6952 24.5559 72.8155 25.3943ZM123.492 25.2197C123.001 27.1732 122.438 29.1084 121.918 31.0538C121.629 32.0743 121.373 33.1561 120.688 33.987C119.943 34.9184 118.735 35.3732 117.577 35.3221C116.498 35.3456 115.364 34.8363 114.82 33.8521C114.746 33.7142 114.644 33.492 114.826 33.3938C115.389 32.9965 115.924 32.5578 116.511 32.1966C116.802 32.8541 117.493 33.4156 118.23 33.1946C118.954 32.9976 119.261 32.2138 119.422 31.5408C120.011 29.4345 120.565 27.3179 121.171 25.2174C121.945 25.2214 122.718 25.2122 123.492 25.2197ZM127.36 25.2226C126.499 28.5209 125.593 31.8084 124.695 35.097C123.911 35.1544 123.123 35.124 122.338 35.1205C123.219 31.8336 124.11 28.5468 125.037 25.2742C125.792 25.1468 126.589 25.2461 127.36 25.2226Z" fill="#E00501"/>
</g>
<defs>
<clipPath id="clip0_1586_1185">
<rect width="76" height="16" fill="white" transform="translate(51 22)"/>
</clipPath>
</defs>
</svg>
