<svg viewBox="0 0 24 25" fill="#525252" xmlns="http://www.w3.org/2000/svg">
<path d="M21.1297 17.2468C20.6093 16.3504 19.8357 13.8141 19.8357 10.5013C19.8357 8.51183 19.0454 6.60384 17.6387 5.19708C16.2319 3.79031 14.3239 3 12.3345 3C10.345 3 8.437 3.79031 7.03024 5.19708C5.62347 6.60384 4.83316 8.51183 4.83316 10.5013C4.83316 13.815 4.05865 16.3504 3.53825 17.2468C3.40535 17.4747 3.3349 17.7336 3.33399 17.9974C3.33309 18.2612 3.40176 18.5206 3.53309 18.7494C3.66441 18.9782 3.85375 19.1684 4.082 19.3006C4.31025 19.4329 4.56935 19.5027 4.83316 19.5028H8.65976C8.83282 20.3497 9.29307 21.1108 9.96267 21.6574C10.6323 22.204 11.4701 22.5025 12.3345 22.5025C13.1988 22.5025 14.0366 22.204 14.7062 21.6574C15.3758 21.1108 15.8361 20.3497 16.0091 19.5028H19.8357C20.0995 19.5025 20.3585 19.4326 20.5866 19.3003C20.8147 19.1679 21.0039 18.9778 21.1351 18.749C21.2663 18.5203 21.3349 18.2609 21.334 17.9972C21.333 17.7335 21.2626 17.4747 21.1297 17.2468ZM12.3345 21.0031C11.8692 21.003 11.4154 20.8586 11.0356 20.59C10.6558 20.3213 10.3685 19.9415 10.2135 19.5028H14.4554C14.3004 19.9415 14.0131 20.3213 13.6333 20.59C13.2535 20.8586 12.7997 21.003 12.3345 21.0031Z" />
</svg>
