<svg viewBox="0 0 15 14" xmlns="http://www.w3.org/2000/svg">
<path d="M13.7681 6.17815L10.9556 8.60502L11.8125 12.2344C11.8597 12.4314 11.8476 12.638 11.7775 12.8281C11.7074 13.0182 11.5825 13.1833 11.4187 13.3025C11.2548 13.4217 11.0593 13.4896 10.8569 13.4977C10.6544 13.5059 10.4541 13.4538 10.2812 13.3481L7.12496 11.4056L3.96684 13.3481C3.79398 13.4532 3.5939 13.5048 3.3918 13.4963C3.18969 13.4879 2.9946 13.4199 2.83109 13.3008C2.66757 13.1817 2.54295 13.0169 2.4729 12.8272C2.40286 12.6374 2.39053 12.4312 2.43746 12.2344L3.29746 8.60502L0.484961 6.17815C0.332022 6.04596 0.221414 5.87166 0.16695 5.67699C0.112486 5.48232 0.11658 5.27592 0.17872 5.08356C0.240861 4.89121 0.358294 4.72142 0.516354 4.59541C0.674414 4.4694 0.866096 4.39274 1.06746 4.37502L4.75496 4.07752L6.17746 0.63502C6.25446 0.447406 6.38551 0.286926 6.55394 0.173982C6.72238 0.061038 6.9206 0.000732422 7.1234 0.000732422C7.3262 0.000732422 7.52442 0.061038 7.69285 0.173982C7.86129 0.286926 7.99234 0.447406 8.06934 0.63502L9.49121 4.07752L13.1787 4.37502C13.3805 4.39208 13.5727 4.46831 13.7314 4.59415C13.89 4.71999 14.008 4.88984 14.0705 5.08243C14.133 5.27502 14.1373 5.48178 14.0829 5.6768C14.0284 5.87182 13.9176 6.04644 13.7643 6.17877L13.7681 6.17815Z" />
</svg>
