<svg viewBox="0 0 24 24" fill="#525252" xmlns="http://www.w3.org/2000/svg">
<path d="M15.9518 4C16.8365 4.08058 17.9446 5.10636 17.9446 6.01294V10.2923C16.118 9.17758 13.7743 9.13393 11.9007 10.1681C9.01645 11.7613 7.92016 15.4061 9.49828 18.3307L10.247 19.4387H7.17978C6.22619 19.4387 5.20881 18.5019 5.06107 17.5718C4.98048 13.6803 4.97881 9.75846 5.06107 5.86688C5.22728 4.94687 6.06502 4.11248 7.0035 4H15.9518ZM8.00913 6.50988C7.30905 6.7466 7.38796 7.64815 8.11658 7.75224H14.8773C15.6294 7.62464 15.6328 6.63076 14.8773 6.50149L8.00913 6.50988ZM8.00913 9.01138C7.33088 9.21116 7.38292 10.153 8.08133 10.2504C9.12389 10.3947 10.477 10.153 11.5515 10.2504C12.2751 10.1077 12.2986 9.20276 11.5918 9.00634L8.00746 9.01305L8.00913 9.01138ZM8.00913 11.5129C7.47526 11.6237 7.33592 12.401 7.85132 12.6696C8.07293 12.7854 8.79148 12.7871 9.0517 12.7519C9.80551 12.6478 9.76521 11.5901 9.05674 11.5045C8.86703 11.481 8.18541 11.4776 8.00913 11.5145V11.5129Z" />
<path d="M19.6243 15.2187V15.7274C19.3641 19.4477 15.1585 21.5849 12.0476 19.3772C9.64687 17.6748 9.32286 14.1996 11.403 12.096C14.3409 9.12444 19.3641 11.0971 19.6243 15.2187ZM15.444 14.8275V13.6355C15.444 13.5449 15.271 13.3216 15.1904 13.2645C14.764 12.9623 14.2369 13.2427 14.1915 13.7514C14.1613 14.0972 14.1445 15.3513 14.2201 15.6417C14.2738 15.8516 14.5038 16.0531 14.7204 16.0799C15.1166 16.1269 16.1155 16.1202 16.5201 16.0799C16.9767 16.0363 17.2319 15.5074 16.9684 15.1196C16.8928 15.0088 16.651 14.8275 16.5184 14.8275H15.444Z" />
</svg>
