<svg viewBox="0 0 24 24" fill="#525252" xmlns="http://www.w3.org/2000/svg">
<path d="M12.4527 3L13.379 3.12081C16.8916 3.71788 19.7466 6.43505 20.5101 9.91688L20.7189 11.2701C20.7027 11.6337 20.7406 12.0105 20.7189 12.3729C20.2557 20.0353 10.7206 23.488 5.45338 17.85C0.186196 12.212 3.97708 3.43168 11.3505 3H12.4527ZM8.2554 5.65603C6.36051 5.91571 6.6219 8.82847 8.57606 8.6966C10.6234 8.55848 10.3178 5.37352 8.2554 5.65603ZM13.8506 6.7474C13.8491 6.49177 13.9029 6.05972 13.5163 6.17796L11.684 7.39492C11.6071 7.46454 11.5857 7.56509 11.6343 7.65901L13.5163 8.93749C13.9018 9.05536 13.8517 8.6222 13.8491 8.36621C14.7574 8.47818 15.5769 8.96217 16.0356 9.76218C16.1563 9.97287 16.3721 10.4215 16.3393 10.6539C16.3191 10.7968 16.0606 11.2226 16.3073 11.2908C16.5933 11.3696 16.6854 11.0197 16.7402 10.7994C17.2332 8.82441 15.8666 6.91094 13.851 6.74703L13.8506 6.7474ZM7.08062 8.62994C6.99115 8.64098 6.59613 8.78169 6.50114 8.82625C5.78251 9.1607 5.65144 9.89957 5.72949 10.6274C5.76262 10.9361 5.95885 11.0985 6.26074 11.125C7.68807 11.251 9.29838 11.027 10.7452 11.1243C11.2901 11.0587 11.2397 10.3412 11.2032 9.92941C11.1318 9.12829 10.5107 8.76916 9.79023 8.6233C9.15774 9.12276 8.36805 9.27046 7.62107 8.91834C7.4646 8.84467 7.21536 8.61336 7.08062 8.62994ZM6.96943 11.7935C6.92452 11.749 6.76953 11.7331 6.70878 11.7534C6.56888 11.8002 6.40432 12.5994 6.39106 12.7593C6.24049 14.5811 7.5559 16.1384 9.36427 16.3074C9.35986 16.6017 9.32488 17.036 9.74642 16.8511L11.55 15.6418C11.6325 15.545 11.6247 15.4197 11.5312 15.3339L9.69893 14.117C9.31347 13.9991 9.36354 14.4322 9.36612 14.6882C8.31651 14.5648 7.3895 13.9173 6.99741 12.9232C6.95728 12.8215 6.86966 12.598 6.86635 12.5C6.86009 12.3073 7.11559 11.939 6.96943 11.7932V11.7935ZM14.5011 11.9412C12.6405 12.198 12.9059 15.1597 14.8914 14.9777C16.9103 14.7928 16.5941 11.6521 14.5011 11.9412ZM13.3628 14.9151C13.2494 14.9295 12.8982 15.0584 12.7837 15.1115C12.0614 15.4459 11.9333 16.1807 12.0117 16.9122C12.0448 17.2209 12.241 17.3833 12.5429 17.4098C13.9474 17.534 15.5309 17.3126 16.9545 17.4098C17.5756 17.3874 17.5262 16.6746 17.485 16.2142C17.4136 15.4146 16.7933 15.0529 16.0731 14.9092C15.2886 15.5258 14.2313 15.5719 13.4545 14.9144C13.4235 14.9015 13.3937 14.9111 13.3628 14.9151Z" fill="#525252"/>
</svg>
