<svg viewBox="0 0 12 15" fill="#525252" xmlns="http://www.w3.org/2000/svg">
<path d="M8.24165 4.53625C8.88498 4.19629 9.4235 3.68743 9.79934 3.06438C10.1752 2.44133 10.3741 1.72763 10.3748 1C10.3748 0.867392 10.3221 0.740215 10.2283 0.646447C10.1346 0.552678 10.0074 0.5 9.87477 0.5H9.37477C8.65998 0.500271 7.95832 0.692076 7.34278 1.05546C6.72725 1.41885 6.22033 1.94053 5.87478 2.56625C5.52922 1.94053 5.0223 1.41885 4.40677 1.05546C3.79123 0.692076 3.08957 0.500271 2.37478 0.5H1.87478C1.74217 0.5 1.61499 0.552678 1.52122 0.646447C1.42745 0.740215 1.37478 0.867392 1.37478 1C1.37478 1.13261 1.42745 1.25979 1.52122 1.35355C1.61499 1.44732 1.74217 1.5 1.87478 1.5H2.37478C3.08806 1.50098 3.77774 1.75565 4.32048 2.21847C4.86322 2.68129 5.22364 3.32208 5.33728 4.02625C4.0138 4.15579 2.78207 4.76045 1.87011 5.72829C0.958158 6.69613 0.427738 7.9616 0.377047 9.29044C0.326356 10.6193 0.758827 11.9215 1.5944 12.956C2.42997 13.9905 3.61206 14.6872 4.92182 14.9172C6.23158 15.1472 7.58032 14.8949 8.71835 14.2069C9.85638 13.519 10.7066 12.442 11.1117 11.1754C11.5167 9.9088 11.4492 8.53832 10.9215 7.31769C10.3939 6.09706 9.44182 5.10894 8.24165 4.53625ZM9.3329 1.5C9.21497 2.19154 8.85885 2.82005 8.32624 3.27664C7.79364 3.73322 7.11809 3.98912 6.41665 4C6.53458 3.30846 6.8907 2.67995 7.42331 2.22336C7.95591 1.76678 8.63146 1.51088 9.3329 1.5ZM9.3679 10.0825C9.23928 10.8074 8.89115 11.4752 8.37059 11.9958C7.85002 12.5164 7.18214 12.8645 6.45728 12.9931C6.43 12.9976 6.40241 12.9999 6.37478 13C6.24941 12.9998 6.12869 12.9525 6.03653 12.8675C5.94438 12.7825 5.88752 12.666 5.87722 12.5411C5.86692 12.4161 5.90393 12.2919 5.98092 12.1929C6.05791 12.094 6.16926 12.0276 6.2929 12.0069C6.81319 11.9144 7.29256 11.6645 7.66622 11.2908C8.03989 10.9172 8.28983 10.4378 8.38227 9.9175C8.40523 9.78771 8.4785 9.67223 8.58616 9.59618C8.69381 9.52014 8.82714 9.48968 8.95714 9.51143C9.08714 9.53317 9.20329 9.60537 9.28033 9.71232C9.35737 9.81927 9.38907 9.95231 9.36852 10.0825H9.3679Z" />
</svg>
