<svg viewBox="0 0 14 14" fill="#525252" xmlns="http://www.w3.org/2000/svg">
<path d="M2.59854 1.89939C3.5945 1.15651 4.78983 0.688114 6.05166 0.546265C6.08897 0.542289 6.12675 0.545802 6.16251 0.556573C6.19827 0.567343 6.2312 0.585127 6.25912 0.60875C6.28705 0.632374 6.30933 0.661301 6.32451 0.693623C6.33969 0.725945 6.34741 0.760928 6.34717 0.796265V6.50002H4.73018C4.59818 4.89014 3.83287 3.38449 2.58393 2.27752C2.55599 2.25307 2.53397 2.22326 2.51937 2.19009C2.50477 2.15692 2.49793 2.12118 2.49931 2.08531C2.5007 2.04943 2.51028 2.01425 2.5274 1.98217C2.54452 1.95009 2.56879 1.92186 2.59854 1.89939ZM1.42979 3.00439C0.655198 3.93479 0.166236 5.04713 0.0160009 6.22064C0.0115736 6.25585 0.0151546 6.29154 0.0265062 6.32535C0.0378579 6.35916 0.0567206 6.39031 0.081842 6.41673C0.106964 6.44315 0.137769 6.46424 0.172214 6.4786C0.206659 6.49296 0.243955 6.50026 0.281626 6.50002H3.66303C3.53199 5.15121 2.87593 3.89556 1.82092 2.97439C1.7939 2.9507 1.76192 2.93258 1.72704 2.92118C1.69216 2.90978 1.65513 2.90535 1.61832 2.90817C1.58152 2.91099 1.54574 2.92101 1.51328 2.93758C1.48082 2.95414 1.45238 2.9769 1.42979 3.00439ZM11.1517 1.89939C10.1557 1.15651 8.96038 0.688114 7.69854 0.546265C7.66123 0.542289 7.62345 0.545802 7.58769 0.556573C7.55193 0.567343 7.519 0.585127 7.49108 0.60875C7.46316 0.632374 7.44087 0.661301 7.42569 0.693623C7.41052 0.725945 7.40279 0.760928 7.40303 0.796265V6.50002H9.0167C9.14871 4.89014 9.91401 3.38449 11.163 2.27752C11.1911 2.25329 11.2134 2.22365 11.2282 2.19061C11.2431 2.15757 11.2503 2.1219 11.2492 2.08602C11.2481 2.05015 11.2389 2.01491 11.222 1.98271C11.2052 1.9505 11.1812 1.92209 11.1517 1.89939ZM13.7322 6.22064C13.5826 5.04732 13.0943 3.93499 12.3204 3.00439C12.2978 2.97719 12.2695 2.95469 12.2372 2.93831C12.2049 2.92192 12.1694 2.91201 12.1328 2.90919C12.0963 2.90637 12.0595 2.91071 12.0248 2.92193C11.9901 2.93315 11.9583 2.95101 11.9313 2.97439C10.8755 3.89527 10.2187 5.15094 10.0872 6.50002H13.4679C13.5055 6.50008 13.5426 6.49265 13.5769 6.47822C13.6112 6.46378 13.6418 6.44266 13.6668 6.41626C13.6918 6.38986 13.7105 6.35877 13.7218 6.32505C13.7331 6.29133 13.7366 6.25575 13.7322 6.22064ZM0.0179932 7.77939C0.167648 8.95271 0.655912 10.065 1.42979 10.9956C1.45238 11.0228 1.48071 11.0453 1.513 11.0617C1.54528 11.0781 1.58082 11.088 1.61738 11.0908C1.65394 11.0937 1.69072 11.0893 1.72541 11.0781C1.7601 11.0669 1.79194 11.049 1.81893 11.0256C2.87467 10.1048 3.53146 8.84909 3.66303 7.50002H0.28229C0.24473 7.49995 0.207582 7.50738 0.173298 7.52181C0.139013 7.53625 0.108371 7.55737 0.0833945 7.58377C0.0584178 7.61017 0.0396741 7.64126 0.0284006 7.67498C0.017127 7.7087 0.0135798 7.74429 0.0179932 7.77939ZM12.3204 10.9956C13.095 10.0652 13.584 8.9529 13.7342 7.77939C13.7386 7.74418 13.7351 7.70849 13.7237 7.67468C13.7123 7.64087 13.6935 7.60972 13.6684 7.5833C13.6432 7.55688 13.6124 7.53579 13.578 7.52143C13.5435 7.50707 13.5062 7.49977 13.4686 7.50002H10.0872C10.2182 8.84882 10.8743 10.1045 11.9293 11.0256C11.9563 11.0493 11.9883 11.0674 12.0232 11.0788C12.058 11.0903 12.0951 11.0947 12.1319 11.0919C12.1687 11.089 12.2045 11.079 12.2369 11.0625C12.2694 11.0459 12.2978 11.0231 12.3204 10.9956ZM2.59854 12.1006C3.5945 12.8435 4.78983 13.3119 6.05166 13.4538C6.08897 13.4577 6.12675 13.4542 6.16251 13.4435C6.19827 13.4327 6.2312 13.4149 6.25912 13.3913C6.28705 13.3677 6.30933 13.3387 6.32451 13.3064C6.33969 13.2741 6.34741 13.2391 6.34717 13.2038V7.50002H4.73018C4.59818 9.10989 3.83287 10.6155 2.58393 11.7225C2.55599 11.747 2.53397 11.7768 2.51937 11.8099C2.50477 11.8431 2.49793 11.8788 2.49931 11.9147C2.5007 11.9506 2.51028 11.9858 2.5274 12.0179C2.54452 12.0499 2.56879 12.0782 2.59854 12.1006ZM9.02002 7.50002H7.40635V13.205C7.40611 13.2404 7.41384 13.2753 7.42902 13.3077C7.44419 13.34 7.46648 13.3689 7.4944 13.3925C7.52233 13.4162 7.55525 13.4339 7.59101 13.4447C7.62677 13.4555 7.66455 13.459 7.70186 13.455C8.9637 13.3132 10.159 12.8448 11.155 12.1019C11.1847 12.0794 11.209 12.0512 11.2261 12.0191C11.2432 11.987 11.2528 11.9519 11.2542 11.916C11.2556 11.8801 11.2488 11.8444 11.2342 11.8112C11.2196 11.778 11.1975 11.7482 11.1696 11.7238C9.91913 10.617 9.15259 9.11077 9.02002 7.50002Z" />
</svg>
