<svg viewBox="0 0 32 32" fill="none" xmlns="http://www.w3.org/2000/svg">
<rect x="4" y="4" width="24" height="24" rx="4" fill="#525252"/>
<path fill-rule="evenodd" clip-rule="evenodd" d="M8.28639 15.5964C12.4972 13.7618 15.3051 12.5523 16.7101 11.968C20.7215 10.2995 21.555 10.0097 22.0983 10.0001C22.2178 9.998 22.4849 10.0276 22.658 10.168C22.8041 10.2866 22.8443 10.4468 22.8636 10.5592C22.8828 10.6716 22.9068 10.9277 22.8877 11.1278C22.6703 13.4118 21.7298 18.9545 21.2512 21.5127C21.0488 22.5951 20.6501 22.958 20.2641 22.9936C19.4253 23.0707 18.7883 22.4392 17.9759 21.9067C16.7046 21.0733 15.9864 20.5545 14.7524 19.7413C13.3262 18.8015 14.2507 18.285 15.0635 17.4409C15.2762 17.22 18.972 13.8583 19.0435 13.5533C19.0525 13.5152 19.0608 13.373 18.9763 13.298C18.8919 13.2229 18.7672 13.2486 18.6773 13.269C18.5498 13.2979 16.5188 14.6403 12.5845 17.2961C12.008 17.6919 11.4859 17.8848 11.0181 17.8747C10.5023 17.8635 9.51025 17.5831 8.77274 17.3433C7.86815 17.0493 7.1492 16.8938 7.21181 16.3944C7.24442 16.1343 7.60261 15.8683 8.28639 15.5964Z" fill="white"/>
</svg>
