<svg viewBox="0 0 24 24" fill="#525252" xmlns="http://www.w3.org/2000/svg">
<path d="M11.5634 3.26666C11.6066 3.18826 11.67 3.12289 11.747 3.07736C11.8241 3.03183 11.9119 3.00781 12.0014 3.00781C12.0909 3.00781 12.1787 3.03183 12.2558 3.07736C12.3328 3.12289 12.3962 3.18826 12.4394 3.26666L15.3914 8.87066C15.4618 9.00042 15.5601 9.11299 15.6791 9.20028C15.7982 9.28757 15.9351 9.34741 16.08 9.37552C16.2249 9.40362 16.3743 9.39929 16.5173 9.36283C16.6604 9.32638 16.7936 9.2587 16.9074 9.16466L21.1844 5.50066C21.2665 5.43388 21.3677 5.39487 21.4734 5.38926C21.579 5.38364 21.6838 5.4117 21.7725 5.4694C21.8612 5.5271 21.9293 5.61147 21.9671 5.71035C22.0048 5.80923 22.0102 5.91753 21.9824 6.01966L19.1484 16.2657C19.0906 16.4753 18.9659 16.6604 18.7934 16.7929C18.6209 16.9253 18.4099 16.9979 18.1924 16.9997H5.8114C5.59374 16.9981 5.38251 16.9256 5.20979 16.7932C5.03707 16.6607 4.9123 16.4755 4.8544 16.2657L2.0214 6.02066C1.99365 5.91853 1.99902 5.81023 2.03674 5.71135C2.07446 5.61247 2.14258 5.5281 2.2313 5.4704C2.32002 5.4127 2.42476 5.38464 2.53044 5.39026C2.63612 5.39587 2.7373 5.43488 2.8194 5.50166L7.0954 9.16566C7.2092 9.2597 7.34241 9.32738 7.48546 9.36384C7.62852 9.40029 7.77787 9.40462 7.9228 9.37652C8.06773 9.34841 8.20464 9.28856 8.32369 9.20128C8.44275 9.11399 8.541 9.00142 8.6114 8.87166L11.5634 3.26666Z" fill="#525252" stroke="#525252" stroke-width="2" stroke-linecap="round" stroke-linejoin="round"/>
<path d="M5 21H19" stroke="#525252" stroke-width="2" stroke-linecap="round" stroke-linejoin="round"/>
</svg>
