<svg viewBox="0 0 24 24" xmlns="http://www.w3.org/2000/svg">
<path d="M14.8498 3.94909V7.75355H13.3501V3.94909C13.3499 3.88374 13.3337 3.81943 13.3028 3.76182C13.272 3.7042 13.2275 3.65506 13.1732 3.61869C13.1189 3.58233 13.0564 3.55987 12.9914 3.55328C12.9264 3.54669 12.8608 3.55618 12.8003 3.58092L4.86982 6.56926C4.61261 6.66707 4.39144 6.84114 4.23593 7.06815C4.08042 7.29517 3.99799 7.56429 3.9997 7.83946V8.50953C3.53328 8.85803 3.15478 9.31073 2.89439 9.8315C2.63401 10.3523 2.49896 10.9267 2.50001 11.5089V7.83946C2.49857 7.25987 2.67405 6.69365 3.003 6.21646C3.33195 5.73926 3.7987 5.37383 4.34088 5.16897L12.2799 2.17204C12.4945 2.09265 12.7212 2.05112 12.95 2.04932C13.4535 2.05061 13.9359 2.25118 14.2919 2.60718C14.6479 2.96318 14.8485 3.44564 14.8498 3.94909Z" />
<path d="M21.4989 14.4988V15.499C21.4989 15.63 21.4475 15.7557 21.3557 15.8492C21.2638 15.9426 21.139 15.9962 21.008 15.9985H19.5488C19.2914 16.0052 19.0408 15.9158 18.8459 15.7476C18.6509 15.5795 18.5257 15.3446 18.4946 15.0891C18.4816 14.9422 18.5013 14.7943 18.5522 14.656C18.6031 14.5176 18.6841 14.3923 18.7891 14.2889C18.8797 14.1953 18.9885 14.1213 19.1088 14.0715C19.2292 14.0217 19.3585 13.9971 19.4887 13.9993H20.9982C21.1308 13.9993 21.2579 14.0519 21.3518 14.1455C21.4457 14.2391 21.4986 14.3662 21.4989 14.4988Z" />
<path d="M19.4802 12.95H20.5C20.7651 12.9493 21.0191 12.8437 21.2065 12.6563C21.394 12.4689 21.4996 12.2148 21.5002 11.9498V11.5104C21.4979 10.5138 21.101 9.55871 20.3963 8.85401C19.6916 8.14931 18.7365 7.75241 17.7399 7.75014H6.26029C5.44364 7.7474 4.64896 8.01445 3.9997 8.50981C3.53312 8.85843 3.15451 9.31132 2.89412 9.83232C2.63373 10.3533 2.49876 10.928 2.50001 11.5104V18.2394C2.50228 19.236 2.89918 20.1911 3.60387 20.8958C4.30857 21.6005 5.2637 21.9974 6.26029 21.9997H17.7399C18.7365 21.9974 19.6916 21.6005 20.3963 20.8958C21.101 20.1911 21.4979 19.236 21.5002 18.2394V18.0504C21.4996 17.7853 21.394 17.5313 21.2065 17.3439C21.0191 17.1564 20.7651 17.0509 20.5 17.0502H19.6299C19.1577 17.063 18.6942 16.9215 18.3097 16.6471C17.9252 16.3727 17.6407 15.9804 17.4994 15.5296C17.4208 15.2263 17.4125 14.9091 17.4749 14.602C17.5374 14.295 17.6691 14.0062 17.86 13.7578C18.0508 13.5093 18.2959 13.3076 18.5764 13.168C18.8569 13.0285 19.1656 12.9547 19.4789 12.9524L19.4802 12.95ZM13.9993 12.7499H7.004C6.80513 12.7499 6.6144 12.6709 6.47378 12.5303C6.33315 12.3897 6.25415 12.199 6.25415 12.0001C6.25415 11.8012 6.33315 11.6105 6.47378 11.4699C6.6144 11.3292 6.80513 11.2502 7.004 11.2502H13.9993C14.1982 11.2502 14.3889 11.3292 14.5295 11.4699C14.6701 11.6105 14.7491 11.8012 14.7491 12.0001C14.7491 12.199 14.6701 12.3897 14.5295 12.5303C14.3889 12.6709 14.1982 12.7499 13.9993 12.7499Z" />
</svg>
