<svg viewBox="0 0 24 24" fill="#525252" xmlns="http://www.w3.org/2000/svg">
<path d="M18.862 7.75571C19.8927 7.99503 20.7303 8.86666 20.8663 9.9273C20.8663 12.1302 20.8622 14.6567 20.8622 16.8446C20.8622 18.1527 19.4603 19.0556 18.212 19.1073H5.21102C3.88115 19.0162 3.1251 18.2071 3 16.8962V6.3524C3.10878 5.17074 4.05248 4.30183 5.17975 4.06523C8.96405 3.93469 12.7674 4.04755 16.5585 4.00676C17.4124 4.03939 18.2623 4.5534 18.6281 5.33256C18.9939 6.11172 18.8171 6.94935 18.862 7.75707V7.75571ZM17.4274 7.6714V6.17563C17.4274 6.10492 17.2221 5.75273 17.1554 5.68882C17.0154 5.5542 16.7489 5.45902 16.5558 5.43998L5.61896 5.44542C4.85884 5.52429 4.1871 6.14027 4.51073 6.94527C4.67798 7.36273 5.26813 7.67276 5.70327 7.67276H17.4274V7.6714ZM11.6129 9.51664C8.59555 9.77772 7.0413 13.2139 8.81583 15.6819C10.4625 17.9732 14.1136 17.6795 15.3823 15.1625C16.7489 12.4524 14.6385 9.25556 11.6129 9.518V9.51664Z" />
<path d="M11.2651 13.3389C10.9822 13.5197 10.7551 13.963 10.4193 14.0337C9.80193 14.1643 9.37087 13.4966 9.76793 12.9812C10.0209 12.6522 11.2066 11.4569 11.5316 11.2162C11.8117 11.0095 12.0565 11.0082 12.3379 11.2162C12.6344 11.4351 13.8827 12.6834 14.1016 12.9799C14.5775 13.6231 13.8405 14.3356 13.2313 13.9399C13.0206 13.8025 12.8329 13.4776 12.6045 13.3389L12.6045 15.1474C12.6045 15.1664 12.4889 15.4153 12.463 15.4533C12.2441 15.7797 11.7002 15.7974 11.4418 15.505C11.3902 15.4465 11.2637 15.1637 11.2637 15.1025L11.2637 13.3389L11.2651 13.3389Z" />
</svg>
