<svg viewBox="0 0 32 32" fill="none" xmlns="http://www.w3.org/2000/svg">
<path d="M23.999 4H7.99902C5.78988 4 3.99902 5.79086 3.99902 8V24C3.99902 26.2091 5.78988 28 7.99902 28H23.999C26.2082 28 27.999 26.2091 27.999 24V8C27.999 5.79086 26.2082 4 23.999 4ZM18.8436 22.8571L15.1065 17.5474L10.5705 22.8571H9.14188L14.4607 16.6303L9.19102 9.14286H13.7265L16.9476 13.7194L20.8562 9.14286H22.2847L17.5927 14.636L23.3785 22.8571H18.8436Z" fill="#525252"/>
<path d="M11.3799 10.2856L19.4416 21.7142H21.1925L13.1307 10.2856H11.3799Z" fill="#525252"/>
</svg>
