<svg viewBox="0 0 32 32" fill="none" xmlns="http://www.w3.org/2000/svg">
<rect x="4" y="4" width="24" height="24" rx="4" fill="#525252"/>
<path d="M23.6702 20.11C23.5102 20.95 22.8302 21.59 21.9902 21.71C20.6702 21.91 18.4702 22.15 15.9902 22.15C13.5502 22.15 11.3502 21.91 9.99023 21.71C9.15023 21.59 8.47023 20.95 8.31023 20.11C8.15023 19.19 7.99023 17.83 7.99023 16.15C7.99023 14.47 8.15023 13.11 8.31023 12.19C8.47023 11.35 9.15023 10.71 9.99023 10.59C11.3102 10.39 13.5102 10.15 15.9902 10.15C18.4702 10.15 20.6302 10.39 21.9902 10.59C22.8302 10.71 23.5102 11.35 23.6702 12.19C23.8302 13.11 24.0302 14.47 24.0302 16.15C23.9902 17.83 23.8302 19.19 23.6702 20.11Z" fill="white"/>
<path d="M14.3896 18.95V13.35L19.1896 16.15L14.3896 18.95Z" fill="#525252"/>
</svg>
